G75*
G70*
%OFA0B0*%
%FSLAX24Y24*%
%IPPOS*%
%LPD*%
%AMOC8*
5,1,8,0,0,1.08239X$1,22.5*
%
%ADD10C,0.0000*%
%ADD11C,0.0040*%
%ADD12C,0.0060*%
D10*
X000550Y000160D02*
X000550Y020656D01*
X014420Y020656D01*
X014420Y000160D01*
X000550Y000160D01*
X006507Y002660D02*
X006509Y002686D01*
X006515Y002712D01*
X006525Y002737D01*
X006538Y002760D01*
X006554Y002780D01*
X006574Y002798D01*
X006596Y002813D01*
X006619Y002825D01*
X006645Y002833D01*
X006671Y002837D01*
X006697Y002837D01*
X006723Y002833D01*
X006749Y002825D01*
X006773Y002813D01*
X006794Y002798D01*
X006814Y002780D01*
X006830Y002760D01*
X006843Y002737D01*
X006853Y002712D01*
X006859Y002686D01*
X006861Y002660D01*
X006859Y002634D01*
X006853Y002608D01*
X006843Y002583D01*
X006830Y002560D01*
X006814Y002540D01*
X006794Y002522D01*
X006772Y002507D01*
X006749Y002495D01*
X006723Y002487D01*
X006697Y002483D01*
X006671Y002483D01*
X006645Y002487D01*
X006619Y002495D01*
X006595Y002507D01*
X006574Y002522D01*
X006554Y002540D01*
X006538Y002560D01*
X006525Y002583D01*
X006515Y002608D01*
X006509Y002634D01*
X006507Y002660D01*
X008239Y002660D02*
X008241Y002686D01*
X008247Y002712D01*
X008257Y002737D01*
X008270Y002760D01*
X008286Y002780D01*
X008306Y002798D01*
X008328Y002813D01*
X008351Y002825D01*
X008377Y002833D01*
X008403Y002837D01*
X008429Y002837D01*
X008455Y002833D01*
X008481Y002825D01*
X008505Y002813D01*
X008526Y002798D01*
X008546Y002780D01*
X008562Y002760D01*
X008575Y002737D01*
X008585Y002712D01*
X008591Y002686D01*
X008593Y002660D01*
X008591Y002634D01*
X008585Y002608D01*
X008575Y002583D01*
X008562Y002560D01*
X008546Y002540D01*
X008526Y002522D01*
X008504Y002507D01*
X008481Y002495D01*
X008455Y002487D01*
X008429Y002483D01*
X008403Y002483D01*
X008377Y002487D01*
X008351Y002495D01*
X008327Y002507D01*
X008306Y002522D01*
X008286Y002540D01*
X008270Y002560D01*
X008257Y002583D01*
X008247Y002608D01*
X008241Y002634D01*
X008239Y002660D01*
D11*
X010171Y006160D02*
X010478Y006160D01*
X010632Y006007D02*
X010632Y006314D01*
X010708Y006390D01*
X010938Y006390D01*
X010938Y005930D01*
X010708Y005930D01*
X010632Y006007D01*
X011092Y005853D02*
X011399Y005853D01*
X011552Y006007D02*
X011629Y005930D01*
X011859Y005930D01*
X011859Y006390D01*
X011629Y006390D01*
X011552Y006314D01*
X011552Y006237D01*
X011629Y006160D01*
X011859Y006160D01*
X012013Y006083D02*
X012013Y006007D01*
X012089Y005930D01*
X012243Y005930D01*
X012320Y006007D01*
X012243Y006160D02*
X012089Y006160D01*
X012013Y006083D01*
X012013Y006314D02*
X012089Y006390D01*
X012243Y006390D01*
X012320Y006314D01*
X012320Y006237D01*
X012243Y006160D01*
X012473Y006007D02*
X012550Y005930D01*
X012703Y005930D01*
X012780Y006007D01*
X012780Y006390D01*
X012473Y006390D02*
X012473Y006007D01*
X012550Y006930D02*
X012473Y007007D01*
X012473Y007390D01*
X012320Y007314D02*
X012320Y007237D01*
X012243Y007160D01*
X012089Y007160D01*
X012013Y007083D01*
X012013Y007007D01*
X012089Y006930D01*
X012243Y006930D01*
X012320Y007007D01*
X012320Y007314D02*
X012243Y007390D01*
X012089Y007390D01*
X012013Y007314D01*
X011859Y007390D02*
X011859Y006930D01*
X011629Y006930D01*
X011552Y007007D01*
X011552Y007083D01*
X011629Y007160D01*
X011859Y007160D01*
X011629Y007160D02*
X011552Y007237D01*
X011552Y007314D01*
X011629Y007390D01*
X011859Y007390D01*
X011399Y006853D02*
X011092Y006853D01*
X010938Y006930D02*
X010708Y006930D01*
X010632Y007007D01*
X010632Y007314D01*
X010708Y007390D01*
X010938Y007390D01*
X010938Y006930D01*
X010478Y007160D02*
X010171Y007160D01*
X010325Y007314D02*
X010325Y007007D01*
X011552Y006083D02*
X011552Y006007D01*
X011552Y006083D02*
X011629Y006160D01*
X012550Y006930D02*
X012703Y006930D01*
X012780Y007007D01*
X012780Y007390D01*
X012780Y008930D02*
X012780Y009390D01*
X012550Y009390D01*
X012473Y009314D01*
X012473Y009160D01*
X012550Y009083D01*
X012780Y009083D01*
X012320Y008930D02*
X012166Y008930D01*
X012243Y008930D02*
X012243Y009390D01*
X012320Y009390D02*
X012166Y009390D01*
X012013Y009314D02*
X012013Y009007D01*
X011936Y008930D01*
X011782Y008930D01*
X011706Y009007D01*
X011706Y009314D01*
X011782Y009390D01*
X011936Y009390D01*
X012013Y009314D01*
X011552Y009314D02*
X011552Y009007D01*
X011245Y009314D01*
X011245Y009007D01*
X011322Y008930D01*
X011476Y008930D01*
X011552Y009007D01*
X011552Y009314D02*
X011476Y009390D01*
X011322Y009390D01*
X011245Y009314D01*
X011399Y009930D02*
X011092Y009930D01*
X011245Y010160D02*
X011399Y010160D01*
X011552Y010007D02*
X011552Y010314D01*
X011629Y010390D01*
X011859Y010390D01*
X011859Y009930D01*
X011629Y009930D01*
X011552Y010007D01*
X011399Y009930D02*
X011399Y010390D01*
X011092Y010390D01*
X011245Y010930D02*
X011552Y010930D01*
X011245Y011237D01*
X011245Y011314D01*
X011322Y011390D01*
X011476Y011390D01*
X011552Y011314D01*
X011706Y011314D02*
X011782Y011390D01*
X011936Y011390D01*
X012013Y011314D01*
X012013Y011007D01*
X011936Y010930D01*
X011782Y010930D01*
X011706Y011007D01*
X011706Y011314D01*
X011706Y011930D02*
X011706Y012160D01*
X011552Y012314D01*
X011552Y012390D01*
X011706Y012160D02*
X011859Y012314D01*
X011859Y012390D01*
X012013Y012390D02*
X012320Y012390D01*
X012320Y011930D01*
X012013Y011930D01*
X012166Y012160D02*
X012320Y012160D01*
X012473Y011930D02*
X012703Y012160D01*
X012780Y012083D02*
X012473Y012390D01*
X012780Y012390D02*
X012780Y011930D01*
X012780Y011390D02*
X012550Y011390D01*
X012473Y011314D01*
X012473Y011160D01*
X012550Y011083D01*
X012780Y011083D01*
X012780Y010930D02*
X012780Y011390D01*
X012320Y011390D02*
X012166Y011390D01*
X012243Y011390D02*
X012243Y010930D01*
X012320Y010930D02*
X012166Y010930D01*
X012089Y010390D02*
X012013Y010314D01*
X012013Y010007D01*
X012089Y009930D01*
X012243Y009930D01*
X012320Y010007D01*
X012320Y010314D01*
X012243Y010390D01*
X012089Y010390D01*
X012473Y010390D02*
X012473Y009930D01*
X012627Y010237D02*
X012473Y010390D01*
X012627Y010237D02*
X012780Y010390D01*
X012780Y009930D01*
X012780Y012930D02*
X012780Y013390D01*
X012550Y013390D01*
X012473Y013314D01*
X012473Y013160D01*
X012550Y013083D01*
X012780Y013083D01*
X012320Y012930D02*
X012166Y012930D01*
X012243Y012930D02*
X012243Y013390D01*
X012320Y013390D02*
X012166Y013390D01*
X012013Y013314D02*
X012013Y013007D01*
X011936Y012930D01*
X011782Y012930D01*
X011706Y013007D01*
X011706Y013314D01*
X011782Y013390D01*
X011936Y013390D01*
X012013Y013314D01*
X011552Y013160D02*
X011245Y013160D01*
X011322Y012930D02*
X011322Y013390D01*
X011552Y013160D01*
X011476Y013930D02*
X011322Y013930D01*
X011245Y014007D01*
X011245Y014160D01*
X011322Y014237D01*
X011399Y014237D01*
X011552Y014160D01*
X011552Y014390D01*
X011245Y014390D01*
X011552Y014007D02*
X011476Y013930D01*
X011706Y014007D02*
X011706Y014314D01*
X011782Y014390D01*
X011936Y014390D01*
X012013Y014314D01*
X012013Y014007D01*
X011936Y013930D01*
X011782Y013930D01*
X011706Y014007D01*
X012166Y013930D02*
X012320Y013930D01*
X012243Y013930D02*
X012243Y014390D01*
X012320Y014390D02*
X012166Y014390D01*
X012166Y014930D02*
X012320Y014930D01*
X012243Y014930D02*
X012243Y015390D01*
X012320Y015390D02*
X012166Y015390D01*
X012013Y015314D02*
X012013Y015007D01*
X011936Y014930D01*
X011782Y014930D01*
X011706Y015007D01*
X011706Y015314D01*
X011782Y015390D01*
X011936Y015390D01*
X012013Y015314D01*
X011552Y015160D02*
X011322Y015160D01*
X011245Y015083D01*
X011245Y015007D01*
X011322Y014930D01*
X011476Y014930D01*
X011552Y015007D01*
X011552Y015160D01*
X011399Y015314D01*
X011245Y015390D01*
X011552Y015930D02*
X011552Y016007D01*
X011245Y016314D01*
X011245Y016390D01*
X011552Y016390D01*
X011706Y016314D02*
X011782Y016390D01*
X011936Y016390D01*
X012013Y016314D01*
X012013Y016007D01*
X011936Y015930D01*
X011782Y015930D01*
X011706Y016007D01*
X011706Y016314D01*
X012166Y016390D02*
X012320Y016390D01*
X012243Y016390D02*
X012243Y015930D01*
X012320Y015930D02*
X012166Y015930D01*
X012473Y016160D02*
X012550Y016083D01*
X012780Y016083D01*
X012780Y015930D02*
X012780Y016390D01*
X012550Y016390D01*
X012473Y016314D01*
X012473Y016160D01*
X012550Y016930D02*
X012703Y016930D01*
X012780Y017007D01*
X012703Y017160D02*
X012550Y017160D01*
X012473Y017083D01*
X012473Y017007D01*
X012550Y016930D01*
X012703Y017160D02*
X012780Y017237D01*
X012780Y017314D01*
X012703Y017390D01*
X012550Y017390D01*
X012473Y017314D01*
X012320Y017390D02*
X012013Y017390D01*
X012166Y017390D02*
X012166Y016930D01*
X011859Y016930D02*
X011859Y017237D01*
X011706Y017390D01*
X011552Y017237D01*
X011552Y016930D01*
X011552Y017160D02*
X011859Y017160D01*
X011399Y017390D02*
X011092Y017390D01*
X011245Y017390D02*
X011245Y016930D01*
X011245Y017930D02*
X011399Y018083D01*
X011322Y018083D02*
X011552Y018083D01*
X011552Y017930D02*
X011552Y018390D01*
X011322Y018390D01*
X011245Y018314D01*
X011245Y018160D01*
X011322Y018083D01*
X011706Y017930D02*
X011859Y017930D01*
X011782Y017930D02*
X011782Y018390D01*
X011706Y018390D02*
X011859Y018390D01*
X012013Y018237D02*
X012013Y017930D01*
X012013Y018160D02*
X012320Y018160D01*
X012320Y018237D02*
X012166Y018390D01*
X012013Y018237D01*
X012320Y018237D02*
X012320Y017930D01*
X012550Y018083D02*
X012780Y018083D01*
X012780Y017930D02*
X012780Y018390D01*
X012550Y018390D01*
X012473Y018314D01*
X012473Y018160D01*
X012550Y018083D01*
X012780Y018930D02*
X012780Y019390D01*
X012550Y019390D01*
X012473Y019314D01*
X012473Y019160D01*
X012550Y019083D01*
X012780Y019083D01*
X012320Y018930D02*
X012166Y018930D01*
X012243Y018930D02*
X012243Y019390D01*
X012320Y019390D02*
X012166Y019390D01*
X012013Y019314D02*
X012013Y019007D01*
X011936Y018930D01*
X011782Y018930D01*
X011706Y019007D01*
X011706Y019314D01*
X011782Y019390D01*
X011936Y019390D01*
X012013Y019314D01*
X011552Y019237D02*
X011399Y019390D01*
X011399Y018930D01*
X011552Y018930D02*
X011245Y018930D01*
X011092Y019007D02*
X011092Y019314D01*
X011015Y019390D01*
X010862Y019390D01*
X010785Y019314D01*
X011092Y019007D01*
X011015Y018930D01*
X010862Y018930D01*
X010785Y019007D01*
X010785Y019314D01*
X010938Y019930D02*
X010938Y020390D01*
X010785Y020237D01*
X010632Y020390D01*
X010632Y019930D01*
X010478Y019930D02*
X010248Y019930D01*
X010171Y020007D01*
X010171Y020314D01*
X010248Y020390D01*
X010478Y020390D01*
X010478Y019930D01*
X011092Y020007D02*
X011169Y019930D01*
X011322Y019930D01*
X011399Y020007D01*
X011399Y020314D01*
X011322Y020390D01*
X011169Y020390D01*
X011092Y020314D01*
X011552Y019853D02*
X011859Y019853D01*
X012166Y019930D02*
X012166Y020390D01*
X012013Y020390D02*
X012320Y020390D01*
X012473Y020237D02*
X012473Y019930D01*
X012473Y020160D02*
X012780Y020160D01*
X012780Y020237D02*
X012627Y020390D01*
X012473Y020237D01*
X012780Y020237D02*
X012780Y019930D01*
X012780Y015390D02*
X012550Y015390D01*
X012473Y015314D01*
X012473Y015160D01*
X012550Y015083D01*
X012780Y015083D01*
X012780Y014930D02*
X012780Y015390D01*
X012780Y014390D02*
X012550Y014390D01*
X012473Y014314D01*
X012473Y014160D01*
X012550Y014083D01*
X012780Y014083D01*
X012780Y013930D02*
X012780Y014390D01*
X012703Y004390D02*
X012550Y004390D01*
X012473Y004314D01*
X012473Y004160D02*
X012627Y004160D01*
X012473Y004160D02*
X012473Y004007D01*
X012550Y003930D01*
X012703Y003930D01*
X012780Y004007D01*
X012780Y004314D01*
X012703Y004390D01*
X012320Y004390D02*
X012320Y003930D01*
X012013Y003930D02*
X012013Y004390D01*
X011859Y004390D02*
X011629Y004390D01*
X011552Y004314D01*
X011552Y004007D01*
X011629Y003930D01*
X011859Y003930D01*
X011859Y004390D01*
X012320Y004390D02*
X012013Y003930D01*
X012089Y003390D02*
X012013Y003314D01*
X012013Y003237D01*
X012089Y003160D01*
X012320Y003160D01*
X012320Y002930D02*
X012089Y002930D01*
X012013Y003007D01*
X012013Y003083D01*
X012089Y003160D01*
X012089Y003390D02*
X012320Y003390D01*
X012320Y002930D01*
X012473Y003083D02*
X012473Y003390D01*
X012473Y003083D02*
X012627Y002930D01*
X012780Y003083D01*
X012780Y003390D01*
X011859Y003390D02*
X011859Y003007D01*
X011782Y002930D01*
X011629Y002930D01*
X011552Y003007D01*
X011552Y003390D01*
X011399Y003314D02*
X011399Y003237D01*
X011322Y003160D01*
X011169Y003160D01*
X011092Y003083D01*
X011092Y003007D01*
X011169Y002930D01*
X011322Y002930D01*
X011399Y003007D01*
X011399Y003314D02*
X011322Y003390D01*
X011169Y003390D01*
X011092Y003314D01*
X005963Y012930D02*
X005963Y013390D01*
X005733Y013390D01*
X005656Y013314D01*
X005656Y013160D01*
X005733Y013083D01*
X005963Y013083D01*
X005503Y013007D02*
X005426Y012930D01*
X005273Y012930D01*
X005196Y013007D01*
X005042Y012930D02*
X005042Y013390D01*
X004889Y013237D01*
X004735Y013390D01*
X004735Y012930D01*
X004582Y012853D02*
X004275Y012853D01*
X004122Y013007D02*
X004045Y012930D01*
X003891Y012930D01*
X003815Y013007D01*
X003815Y013083D01*
X003891Y013160D01*
X004045Y013160D01*
X004122Y013237D01*
X004122Y013314D01*
X004045Y013390D01*
X003891Y013390D01*
X003815Y013314D01*
X003661Y013314D02*
X003661Y013390D01*
X003661Y013314D02*
X003508Y013160D01*
X003508Y012930D01*
X003508Y013160D02*
X003354Y013314D01*
X003354Y013390D01*
X003201Y013390D02*
X002894Y012930D01*
X002894Y013390D01*
X002740Y013314D02*
X002740Y013007D01*
X002664Y012930D01*
X002510Y012930D01*
X002433Y013007D01*
X002433Y013314D02*
X002510Y013390D01*
X002664Y013390D01*
X002740Y013314D01*
X003201Y013390D02*
X003201Y012930D01*
X003124Y012390D02*
X002971Y012390D01*
X002894Y012314D01*
X003201Y012007D01*
X003124Y011930D01*
X002971Y011930D01*
X002894Y012007D01*
X002894Y012314D01*
X002740Y012314D02*
X002740Y012007D01*
X002433Y012314D01*
X002433Y012007D01*
X002510Y011930D01*
X002664Y011930D01*
X002740Y012007D01*
X002740Y012314D02*
X002664Y012390D01*
X002510Y012390D01*
X002433Y012314D01*
X002587Y011390D02*
X002587Y010930D01*
X002740Y010930D02*
X002433Y010930D01*
X002740Y011237D02*
X002587Y011390D01*
X002894Y011314D02*
X002894Y011007D01*
X002971Y010930D01*
X003124Y010930D01*
X003201Y011007D01*
X002894Y011314D01*
X002971Y011390D01*
X003124Y011390D01*
X003201Y011314D01*
X003201Y011007D01*
X003354Y010930D02*
X003661Y010930D01*
X003508Y010930D02*
X003508Y011390D01*
X003661Y011237D01*
X003815Y011237D02*
X003815Y010930D01*
X003815Y011160D02*
X004122Y011160D01*
X004122Y011237D02*
X003968Y011390D01*
X003815Y011237D01*
X004122Y011237D02*
X004122Y010930D01*
X003661Y010390D02*
X003431Y010390D01*
X003354Y010314D01*
X003354Y010160D01*
X003431Y010083D01*
X003661Y010083D01*
X003661Y009930D02*
X003661Y010390D01*
X003508Y010083D02*
X003354Y009930D01*
X003201Y010007D02*
X003124Y009930D01*
X002971Y009930D01*
X002894Y010007D01*
X002894Y010083D01*
X002971Y010160D01*
X003124Y010160D01*
X003201Y010237D01*
X003201Y010314D01*
X003124Y010390D01*
X002971Y010390D01*
X002894Y010314D01*
X002740Y010390D02*
X002433Y010390D01*
X002587Y010390D02*
X002587Y009930D01*
X002740Y009390D02*
X002740Y009083D01*
X002587Y008930D01*
X002433Y009083D01*
X002433Y009390D01*
X002894Y009314D02*
X002894Y009237D01*
X002971Y009160D01*
X002894Y009083D01*
X002894Y009007D01*
X002971Y008930D01*
X003124Y008930D01*
X003201Y009007D01*
X003354Y009007D02*
X003354Y008930D01*
X003431Y008930D01*
X003431Y009007D01*
X003354Y009007D01*
X003584Y009007D02*
X003661Y008930D01*
X003815Y008930D01*
X003891Y009007D01*
X003738Y009160D02*
X003661Y009160D01*
X003584Y009083D01*
X003584Y009007D01*
X003661Y009160D02*
X003584Y009237D01*
X003584Y009314D01*
X003661Y009390D01*
X003815Y009390D01*
X003891Y009314D01*
X003201Y009314D02*
X003124Y009390D01*
X002971Y009390D01*
X002894Y009314D01*
X002971Y009160D02*
X003047Y009160D01*
X002894Y008390D02*
X002894Y007930D01*
X003201Y008390D01*
X003201Y007930D01*
X003354Y008007D02*
X003354Y008160D01*
X003508Y008160D01*
X003661Y008007D02*
X003584Y007930D01*
X003431Y007930D01*
X003354Y008007D01*
X003354Y008314D02*
X003431Y008390D01*
X003584Y008390D01*
X003661Y008314D01*
X003661Y008007D01*
X002740Y007930D02*
X002510Y007930D01*
X002433Y008007D01*
X002433Y008314D01*
X002510Y008390D01*
X002740Y008390D01*
X002740Y007930D01*
X002664Y006390D02*
X002510Y006390D01*
X002433Y006314D01*
X002510Y006160D02*
X002433Y006083D01*
X002433Y006007D01*
X002510Y005930D01*
X002664Y005930D01*
X002740Y006007D01*
X002894Y006007D02*
X002971Y005930D01*
X003124Y005930D01*
X003201Y006007D01*
X003201Y006314D01*
X003124Y006390D01*
X002971Y006390D01*
X002894Y006314D01*
X002740Y006314D02*
X002740Y006237D01*
X002664Y006160D01*
X002510Y006160D01*
X002664Y006390D02*
X002740Y006314D01*
X002817Y005390D02*
X002971Y005390D01*
X003047Y005314D01*
X003047Y005237D01*
X002971Y005160D01*
X002817Y005160D01*
X002740Y005083D01*
X002740Y005007D01*
X002817Y004930D01*
X002971Y004930D01*
X003047Y005007D01*
X003201Y005007D02*
X003201Y005314D01*
X003278Y005390D01*
X003431Y005390D01*
X003508Y005314D01*
X003508Y005007D01*
X003431Y004930D01*
X003278Y004930D01*
X003201Y005007D01*
X003124Y004390D02*
X002971Y004390D01*
X002894Y004314D01*
X002740Y004314D02*
X002740Y004007D01*
X002664Y003930D01*
X002510Y003930D01*
X002433Y004007D01*
X002433Y004314D01*
X002510Y004390D01*
X002664Y004390D01*
X002740Y004314D01*
X002894Y004083D02*
X002894Y004007D01*
X002971Y003930D01*
X003124Y003930D01*
X003201Y004007D01*
X003124Y004160D02*
X002971Y004160D01*
X002894Y004083D01*
X003124Y004160D02*
X003201Y004237D01*
X003201Y004314D01*
X003124Y004390D01*
X003354Y004390D02*
X003508Y004390D01*
X003431Y004390D02*
X003431Y003930D01*
X003508Y003930D02*
X003354Y003930D01*
X003661Y003930D02*
X003661Y004390D01*
X003815Y004237D01*
X003968Y004390D01*
X003968Y003930D01*
X003584Y003390D02*
X003661Y003314D01*
X003661Y003007D01*
X003584Y002930D01*
X003431Y002930D01*
X003354Y003007D01*
X003201Y002930D02*
X002894Y002930D01*
X002740Y002930D02*
X002740Y003390D01*
X002664Y003160D02*
X002433Y002930D01*
X002740Y003083D02*
X002433Y003390D01*
X003201Y003390D02*
X003201Y002930D01*
X003354Y003314D02*
X003431Y003390D01*
X003584Y003390D01*
X003661Y004930D02*
X003661Y005390D01*
X003815Y005237D01*
X003968Y005390D01*
X003968Y004930D01*
X002817Y005390D02*
X002740Y005314D01*
X002587Y005390D02*
X002433Y005390D01*
X002510Y005390D02*
X002510Y004930D01*
X002587Y004930D02*
X002433Y004930D01*
X003354Y011930D02*
X003661Y011930D01*
X003508Y011930D02*
X003508Y012390D01*
X003661Y012237D01*
X003815Y012237D02*
X003815Y011930D01*
X003815Y012160D02*
X004122Y012160D01*
X004122Y012237D02*
X003968Y012390D01*
X003815Y012237D01*
X004122Y012237D02*
X004122Y011930D01*
X003201Y012007D02*
X003201Y012314D01*
X003124Y012390D01*
X003201Y013853D02*
X003508Y013853D01*
X003661Y013930D02*
X003661Y014390D01*
X003815Y014237D01*
X003968Y014390D01*
X003968Y013930D01*
X004122Y014007D02*
X004198Y013930D01*
X004352Y013930D01*
X004429Y014007D01*
X004429Y014314D01*
X004352Y014390D01*
X004198Y014390D01*
X004122Y014314D01*
X004122Y014853D02*
X003815Y014853D01*
X003661Y015007D02*
X003584Y014930D01*
X003431Y014930D01*
X003354Y015007D01*
X003354Y015314D01*
X003431Y015390D01*
X003584Y015390D01*
X003661Y015314D01*
X003661Y015007D01*
X003201Y015007D02*
X003124Y014930D01*
X002971Y014930D01*
X002894Y015007D01*
X002894Y015390D01*
X002740Y015390D02*
X002433Y015390D01*
X002587Y015390D02*
X002587Y014930D01*
X002740Y014390D02*
X002433Y013930D01*
X002433Y014390D01*
X002740Y014390D02*
X002740Y013930D01*
X002894Y013930D02*
X003047Y013930D01*
X002971Y013930D02*
X002971Y014390D01*
X003047Y014390D02*
X002894Y014390D01*
X003201Y015007D02*
X003201Y015390D01*
X003201Y015930D02*
X002894Y015930D01*
X002740Y015930D02*
X002740Y016390D01*
X002664Y016160D02*
X002433Y015930D01*
X002740Y016083D02*
X002433Y016390D01*
X002510Y016930D02*
X002433Y017007D01*
X002433Y017083D01*
X002510Y017160D01*
X002664Y017160D01*
X002740Y017237D01*
X002740Y017314D01*
X002664Y017390D01*
X002510Y017390D01*
X002433Y017314D01*
X002510Y016930D02*
X002664Y016930D01*
X002740Y017007D01*
X003047Y016930D02*
X003047Y017390D01*
X002894Y017390D02*
X003201Y017390D01*
X003354Y017314D02*
X003354Y017160D01*
X003431Y017083D01*
X003661Y017083D01*
X003661Y016930D02*
X003661Y017390D01*
X003431Y017390D01*
X003354Y017314D01*
X003508Y017083D02*
X003354Y016930D01*
X003431Y016390D02*
X003584Y016390D01*
X003661Y016314D01*
X003661Y016007D01*
X003584Y015930D01*
X003431Y015930D01*
X003354Y016007D01*
X003201Y015930D02*
X003201Y016390D01*
X003354Y016314D02*
X003431Y016390D01*
X003815Y015853D02*
X004122Y015853D01*
X004275Y015930D02*
X004275Y016390D01*
X004429Y016237D01*
X004582Y016390D01*
X004582Y015930D01*
X004735Y016007D02*
X004812Y015930D01*
X004966Y015930D01*
X005042Y016007D01*
X005042Y016314D01*
X004966Y016390D01*
X004812Y016390D01*
X004735Y016314D01*
X005196Y016314D02*
X005196Y016160D01*
X005273Y016083D01*
X005503Y016083D01*
X005503Y015930D02*
X005503Y016390D01*
X005273Y016390D01*
X005196Y016314D01*
X005273Y015390D02*
X005196Y015314D01*
X005196Y015160D01*
X005273Y015083D01*
X005503Y015083D01*
X005503Y014930D02*
X005503Y015390D01*
X005273Y015390D01*
X005042Y015314D02*
X005042Y015007D01*
X004966Y014930D01*
X004812Y014930D01*
X004735Y015007D01*
X004582Y014930D02*
X004582Y015390D01*
X004429Y015237D01*
X004275Y015390D01*
X004275Y014930D01*
X004659Y014390D02*
X004582Y014314D01*
X004582Y014160D01*
X004659Y014083D01*
X004889Y014083D01*
X004889Y013930D02*
X004889Y014390D01*
X004659Y014390D01*
X004735Y015314D02*
X004812Y015390D01*
X004966Y015390D01*
X005042Y015314D01*
X005273Y013390D02*
X005426Y013390D01*
X005503Y013314D01*
X005503Y013007D01*
X005196Y013314D02*
X005273Y013390D01*
X003584Y017930D02*
X003431Y017930D01*
X003354Y018007D01*
X003584Y017930D02*
X003661Y018007D01*
X003661Y018314D01*
X003584Y018390D01*
X003431Y018390D01*
X003354Y018314D01*
X003201Y018390D02*
X002894Y018390D01*
X003047Y018390D02*
X003047Y017930D01*
X002740Y018007D02*
X002664Y017930D01*
X002510Y017930D01*
X002433Y018007D01*
X002433Y018083D01*
X002510Y018160D01*
X002664Y018160D01*
X002740Y018237D01*
X002740Y018314D01*
X002664Y018390D01*
X002510Y018390D01*
X002433Y018314D01*
X002433Y018930D02*
X002587Y018930D01*
X002510Y018930D02*
X002510Y019390D01*
X002587Y019390D02*
X002433Y019390D01*
X002510Y019930D02*
X002433Y020007D01*
X002433Y020314D01*
X002510Y020390D01*
X002664Y020390D01*
X002740Y020314D01*
X002740Y020007D01*
X002664Y019930D01*
X002510Y019930D01*
X002740Y019390D02*
X003047Y018930D01*
X003201Y018930D02*
X003354Y019083D01*
X003278Y019083D02*
X003201Y019160D01*
X003201Y019314D01*
X003278Y019390D01*
X003508Y019390D01*
X003508Y018930D01*
X003508Y019083D02*
X003278Y019083D01*
X003047Y019390D02*
X002740Y018930D01*
X002894Y019930D02*
X003201Y020390D01*
X003354Y020390D02*
X003661Y020390D01*
X003508Y020390D02*
X003508Y019930D01*
X003201Y019930D02*
X002894Y020390D01*
D12*
X006130Y019523D02*
X006130Y019096D01*
X006557Y019523D01*
X006664Y019523D01*
X006771Y019417D01*
X006771Y019203D01*
X006664Y019096D01*
X006771Y018665D02*
X006130Y018665D01*
X006130Y018452D02*
X006130Y018879D01*
X006237Y018234D02*
X006130Y018128D01*
X006130Y017914D01*
X006237Y017807D01*
X006664Y018234D01*
X006237Y018234D01*
X006557Y018452D02*
X006771Y018665D01*
X006664Y018234D02*
X006771Y018128D01*
X006771Y017914D01*
X006664Y017807D01*
X006237Y017807D01*
X006130Y017590D02*
X006130Y017163D01*
X006557Y017590D01*
X006664Y017590D01*
X006771Y017483D01*
X006771Y017270D01*
X006664Y017163D01*
X006771Y016945D02*
X006130Y016518D01*
X006237Y016301D02*
X006130Y016194D01*
X006130Y015980D01*
X006237Y015874D01*
X006450Y016087D02*
X006450Y016194D01*
X006344Y016301D01*
X006237Y016301D01*
X006450Y016194D02*
X006557Y016301D01*
X006664Y016301D01*
X006771Y016194D01*
X006771Y015980D01*
X006664Y015874D01*
X006771Y015656D02*
X006130Y015229D01*
X006237Y015012D02*
X006130Y014905D01*
X006130Y014691D01*
X006237Y014585D01*
X006664Y015012D01*
X006237Y015012D01*
X006664Y015012D02*
X006771Y014905D01*
X006771Y014691D01*
X006664Y014585D01*
X006237Y014585D01*
X006130Y014367D02*
X006130Y013940D01*
X006130Y014154D02*
X006771Y014154D01*
X006557Y013940D01*
X007880Y013835D02*
X007880Y013621D01*
X007987Y013514D01*
X008200Y013514D01*
X008307Y013621D01*
X008307Y013835D01*
X008200Y013941D01*
X008094Y013941D01*
X008094Y013514D01*
X008307Y013298D02*
X008307Y013085D01*
X008414Y013191D02*
X007987Y013191D01*
X007880Y013298D01*
X007987Y012867D02*
X007880Y012760D01*
X007880Y012547D01*
X007987Y012440D01*
X008200Y012547D02*
X008200Y012760D01*
X008094Y012867D01*
X007987Y012867D01*
X008200Y012547D02*
X008307Y012440D01*
X008414Y012440D01*
X008521Y012547D01*
X008521Y012760D01*
X008414Y012867D01*
X009380Y012740D02*
X009487Y012634D01*
X009594Y012740D01*
X009594Y013061D01*
X009700Y013061D02*
X009380Y013061D01*
X009380Y012740D01*
X009594Y012416D02*
X009594Y011989D01*
X009700Y011989D02*
X009807Y012096D01*
X009807Y012309D01*
X009700Y012416D01*
X009594Y012416D01*
X009380Y012096D02*
X009487Y011989D01*
X009700Y011989D01*
X009807Y011772D02*
X009807Y011665D01*
X009594Y011452D01*
X009807Y011452D02*
X009380Y011452D01*
X009487Y011234D02*
X009380Y011128D01*
X009380Y010807D01*
X010021Y010807D01*
X010021Y011128D01*
X009914Y011234D01*
X009807Y011234D01*
X009700Y011128D01*
X009700Y010807D01*
X009700Y011128D02*
X009594Y011234D01*
X009487Y011234D01*
X009380Y012096D02*
X009380Y012309D01*
X009807Y012740D02*
X009807Y012954D01*
X009700Y013061D01*
X009594Y013278D02*
X009807Y013598D01*
X009700Y013815D02*
X009807Y013922D01*
X009807Y014135D01*
X009700Y014242D01*
X009487Y014242D01*
X009380Y014135D01*
X009380Y013922D01*
X009487Y013815D01*
X009700Y013815D01*
X009380Y013598D02*
X009594Y013278D01*
X009380Y013278D02*
X010021Y013278D01*
X009807Y014460D02*
X009487Y014460D01*
X009380Y014567D01*
X009380Y014887D01*
X009807Y014887D01*
X009807Y015104D02*
X009807Y015318D01*
X009914Y015211D02*
X009487Y015211D01*
X009380Y015318D01*
X009380Y016179D02*
X009380Y016499D01*
X009487Y016606D01*
X009594Y016606D01*
X009700Y016499D01*
X009700Y016179D01*
X009700Y016499D02*
X009807Y016606D01*
X009914Y016606D01*
X010021Y016499D01*
X010021Y016179D01*
X009380Y016179D01*
X009487Y016823D02*
X009380Y016930D01*
X009380Y017143D01*
X009487Y017250D01*
X009700Y017250D01*
X009807Y017143D01*
X009807Y016930D01*
X009700Y016823D01*
X009487Y016823D01*
X009487Y017468D02*
X009594Y017574D01*
X009594Y017895D01*
X009700Y017895D02*
X009380Y017895D01*
X009380Y017574D01*
X009487Y017468D01*
X009807Y017574D02*
X009807Y017788D01*
X009700Y017895D01*
X009594Y018112D02*
X009807Y018326D01*
X009807Y018432D01*
X009700Y018649D02*
X009807Y018756D01*
X009807Y019076D01*
X010021Y019076D02*
X009380Y019076D01*
X009380Y018756D01*
X009487Y018649D01*
X009700Y018649D01*
X009807Y018112D02*
X009380Y018112D01*
X008521Y017809D02*
X008521Y017489D01*
X007880Y017489D01*
X008094Y017489D02*
X008094Y017809D01*
X008200Y017916D01*
X008414Y017916D01*
X008521Y017809D01*
X008200Y018134D02*
X008307Y018240D01*
X008307Y018454D01*
X008200Y018561D01*
X008094Y018561D01*
X008094Y018134D01*
X008200Y018134D02*
X007987Y018134D01*
X007880Y018240D01*
X007880Y018454D01*
X007987Y018778D02*
X007880Y018885D01*
X007880Y019098D01*
X007987Y018778D02*
X008200Y018778D01*
X008307Y018885D01*
X008307Y019098D01*
X008200Y019205D01*
X008094Y019205D01*
X008094Y018778D01*
X008307Y019423D02*
X008307Y019636D01*
X008414Y019529D02*
X007987Y019529D01*
X007880Y019636D01*
X007880Y016627D02*
X007880Y016307D01*
X007987Y016200D01*
X008200Y016200D01*
X008307Y016307D01*
X008307Y016627D01*
X007773Y016627D01*
X007666Y016520D01*
X007666Y016413D01*
X007880Y015982D02*
X008200Y015982D01*
X008307Y015876D01*
X008307Y015555D01*
X007880Y015555D01*
X007880Y015339D02*
X007880Y015126D01*
X007880Y015232D02*
X008307Y015232D01*
X008307Y015126D01*
X008521Y015232D02*
X008627Y015232D01*
X008521Y014803D02*
X007880Y014803D01*
X007880Y014909D02*
X007880Y014696D01*
X008307Y014372D02*
X008094Y014159D01*
X008307Y014159D02*
X007880Y014159D01*
X008307Y014372D02*
X008307Y014479D01*
X008521Y014696D02*
X008521Y014803D01*
X009380Y009945D02*
X010021Y009518D01*
X009914Y009301D02*
X009487Y008874D01*
X009380Y008980D01*
X009380Y009194D01*
X009487Y009301D01*
X009914Y009301D01*
X010021Y009194D01*
X010021Y008980D01*
X009914Y008874D01*
X009487Y008874D01*
X009700Y008656D02*
X009700Y008229D01*
X009487Y008012D02*
X009380Y007905D01*
X009380Y007691D01*
X009487Y007585D01*
X009914Y007585D01*
X010021Y007691D01*
X010021Y007905D01*
X009914Y008012D01*
X010021Y007367D02*
X009380Y007367D01*
X009380Y006940D02*
X010021Y006940D01*
X009700Y006940D02*
X009700Y007367D01*
X009380Y009518D02*
X010021Y009945D01*
M02*
