G75*
G70*
%OFA0B0*%
%FSLAX24Y24*%
%IPPOS*%
%LPD*%
%AMOC8*
5,1,8,0,0,1.08239X$1,22.5*
%
%ADD10R,0.0591X0.0394*%
%ADD11R,0.0394X0.0591*%
%ADD12C,0.0600*%
%ADD13R,0.0197X0.0984*%
%ADD14R,0.0787X0.0984*%
%ADD15R,0.0394X0.0433*%
%ADD16R,0.0433X0.0394*%
%ADD17R,0.0600X0.0300*%
%ADD18R,0.0315X0.0315*%
%ADD19C,0.0120*%
%ADD20C,0.0400*%
D10*
X004393Y012617D03*
X004393Y013207D03*
X004393Y013798D03*
X004393Y014388D03*
X004393Y014979D03*
X004393Y015569D03*
X004393Y016160D03*
X004393Y016751D03*
X004393Y017341D03*
X004393Y017932D03*
X004393Y018522D03*
X004393Y019113D03*
X004393Y019703D03*
X009707Y019703D03*
X009707Y019113D03*
X009707Y018522D03*
X009707Y017932D03*
X009707Y017341D03*
X009707Y016751D03*
X009707Y016160D03*
X009707Y015569D03*
X009707Y014979D03*
X009707Y014388D03*
X009707Y013798D03*
X009707Y013207D03*
X009707Y012617D03*
D11*
X009117Y011829D03*
X008526Y011829D03*
X007936Y011829D03*
X007345Y011829D03*
X006755Y011829D03*
X006164Y011829D03*
X005574Y011829D03*
X004983Y011829D03*
D12*
X001900Y012160D02*
X001300Y012160D01*
X001300Y011160D02*
X001900Y011160D01*
X001800Y010160D02*
X001200Y010160D01*
X001300Y009160D02*
X001900Y009160D01*
X001800Y008160D02*
X001200Y008160D01*
X001300Y007160D02*
X001900Y007160D01*
X001800Y006160D02*
X001200Y006160D01*
X001300Y005160D02*
X001900Y005160D01*
X001800Y004160D02*
X001200Y004160D01*
X001300Y003160D02*
X001900Y003160D01*
X001800Y013160D02*
X001200Y013160D01*
X001300Y014160D02*
X001900Y014160D01*
X001800Y015160D02*
X001200Y015160D01*
X001300Y016160D02*
X001900Y016160D01*
X001800Y017160D02*
X001200Y017160D01*
X001300Y018160D02*
X001900Y018160D01*
X001800Y019160D02*
X001200Y019160D01*
X001300Y020160D02*
X001900Y020160D01*
X013200Y020160D02*
X013800Y020160D01*
X013900Y019160D02*
X013300Y019160D01*
X013200Y018160D02*
X013800Y018160D01*
X013900Y017160D02*
X013300Y017160D01*
X013200Y016160D02*
X013800Y016160D01*
X013900Y015160D02*
X013300Y015160D01*
X013200Y014160D02*
X013800Y014160D01*
X013900Y013160D02*
X013300Y013160D01*
X013200Y012160D02*
X013800Y012160D01*
X013800Y011160D02*
X013200Y011160D01*
X013300Y010160D02*
X013900Y010160D01*
X013800Y009160D02*
X013200Y009160D01*
X013300Y008160D02*
X013900Y008160D01*
X013800Y007160D02*
X013200Y007160D01*
X013300Y006160D02*
X013900Y006160D01*
X013800Y005160D02*
X013200Y005160D01*
X013300Y004160D02*
X013900Y004160D01*
X013800Y003160D02*
X013200Y003160D01*
D13*
X008180Y003644D03*
X007865Y003644D03*
X007550Y003644D03*
X007235Y003644D03*
X006920Y003644D03*
D14*
X005778Y003644D03*
X005778Y001479D03*
X009322Y001479D03*
X009322Y003644D03*
D15*
X010050Y006325D03*
X010050Y006995D03*
X008550Y006995D03*
X008550Y006325D03*
X007050Y006325D03*
X007050Y006995D03*
X005550Y005995D03*
X005550Y005325D03*
X004550Y005325D03*
X004550Y005995D03*
D16*
X003385Y003160D03*
X002715Y003160D03*
X011215Y003160D03*
X011885Y003160D03*
X011715Y009660D03*
X012385Y009660D03*
X012385Y012160D03*
X011715Y012160D03*
X011715Y017160D03*
X012385Y017160D03*
X012385Y018160D03*
X011715Y018160D03*
X011715Y020160D03*
X012385Y020160D03*
D17*
X012550Y002410D03*
X012550Y000910D03*
X010550Y000910D03*
X010550Y002410D03*
X004550Y002410D03*
X004550Y000910D03*
X002550Y000910D03*
X002550Y002410D03*
D18*
X007050Y004865D03*
X007050Y005455D03*
X008550Y005455D03*
X008550Y004865D03*
X010050Y004865D03*
X010050Y005455D03*
D19*
X001010Y002771D02*
X001010Y000620D01*
X002135Y000620D01*
X002070Y000685D01*
X002070Y001135D01*
X002175Y001240D01*
X002925Y001240D01*
X003015Y001150D01*
X003566Y001150D01*
X003566Y002625D01*
X003247Y002306D01*
X003234Y002274D01*
X003166Y002207D01*
X003078Y002170D01*
X003015Y002170D01*
X002925Y002080D01*
X002175Y002080D01*
X002070Y002185D01*
X002070Y002635D01*
X002175Y002740D01*
X002925Y002740D01*
X002963Y002701D01*
X003069Y002807D01*
X003036Y002841D01*
X003030Y002835D01*
X002994Y002814D01*
X002953Y002803D01*
X002754Y002803D01*
X002754Y003122D01*
X002677Y003122D01*
X002677Y002803D01*
X002478Y002803D01*
X002437Y002814D01*
X002401Y002835D01*
X002371Y002865D01*
X002350Y002901D01*
X002339Y002942D01*
X002339Y002965D01*
X002307Y002888D01*
X002172Y002753D01*
X001995Y002680D01*
X001205Y002680D01*
X001028Y002753D01*
X001010Y002771D01*
X001010Y002767D02*
X001014Y002767D01*
X001010Y002649D02*
X002084Y002649D01*
X002070Y002530D02*
X001010Y002530D01*
X001010Y002412D02*
X002070Y002412D01*
X002070Y002293D02*
X001010Y002293D01*
X001010Y002175D02*
X002081Y002175D01*
X002550Y002410D02*
X003030Y002410D01*
X003030Y002429D01*
X003385Y002783D01*
X003385Y002972D01*
X003385Y003160D01*
X003385Y006357D01*
X003119Y006085D02*
X002280Y006085D01*
X002280Y006065D02*
X002280Y006255D01*
X002207Y006432D01*
X002072Y006567D01*
X001895Y006640D01*
X001105Y006640D01*
X001010Y006601D01*
X001010Y006771D01*
X001028Y006753D01*
X001205Y006680D01*
X001995Y006680D01*
X002172Y006753D01*
X002307Y006888D01*
X002380Y007065D01*
X002380Y007255D01*
X002307Y007432D01*
X002172Y007567D01*
X001995Y007640D01*
X001205Y007640D01*
X001028Y007567D01*
X001010Y007549D01*
X001010Y007741D01*
X001023Y007734D01*
X001092Y007711D01*
X001164Y007700D01*
X001460Y007700D01*
X001460Y008120D01*
X001540Y008120D01*
X001540Y008200D01*
X001460Y008200D01*
X001460Y008620D01*
X001164Y008620D01*
X001092Y008609D01*
X001023Y008586D01*
X001010Y008579D01*
X001010Y008771D01*
X001028Y008753D01*
X001205Y008680D01*
X001995Y008680D01*
X002172Y008753D01*
X002307Y008888D01*
X002309Y008892D01*
X003566Y007635D01*
X003566Y006693D01*
X003460Y006737D01*
X003309Y006737D01*
X003169Y006679D01*
X003062Y006572D01*
X003005Y006433D01*
X003005Y006282D01*
X003062Y006142D01*
X003145Y006060D01*
X003145Y003537D01*
X003094Y003537D01*
X003036Y003479D01*
X003030Y003485D01*
X002994Y003506D01*
X002953Y003517D01*
X002754Y003517D01*
X002754Y003198D01*
X002677Y003198D01*
X002677Y003517D01*
X002478Y003517D01*
X002437Y003506D01*
X002401Y003485D01*
X002371Y003455D01*
X002350Y003419D01*
X002339Y003378D01*
X002339Y003355D01*
X002307Y003432D01*
X002172Y003567D01*
X001995Y003640D01*
X001205Y003640D01*
X001028Y003567D01*
X001010Y003549D01*
X001010Y003719D01*
X001105Y003680D01*
X001895Y003680D01*
X002072Y003753D01*
X002207Y003888D01*
X002280Y004065D01*
X002280Y004255D01*
X002207Y004432D01*
X002072Y004567D01*
X001895Y004640D01*
X001105Y004640D01*
X001010Y004601D01*
X001010Y004771D01*
X001028Y004753D01*
X001205Y004680D01*
X001995Y004680D01*
X002172Y004753D01*
X002307Y004888D01*
X002380Y005065D01*
X002380Y005255D01*
X002307Y005432D01*
X002172Y005567D01*
X001995Y005640D01*
X001205Y005640D01*
X001028Y005567D01*
X001010Y005549D01*
X001010Y005719D01*
X001105Y005680D01*
X001895Y005680D01*
X002072Y005753D01*
X002207Y005888D01*
X002280Y006065D01*
X002239Y005967D02*
X003145Y005967D01*
X003145Y005848D02*
X002167Y005848D01*
X002015Y005730D02*
X003145Y005730D01*
X003145Y005611D02*
X002065Y005611D01*
X002246Y005493D02*
X003145Y005493D01*
X003145Y005374D02*
X002331Y005374D01*
X002380Y005256D02*
X003145Y005256D01*
X003145Y005137D02*
X002380Y005137D01*
X002361Y005019D02*
X003145Y005019D01*
X003145Y004900D02*
X002312Y004900D01*
X002200Y004782D02*
X003145Y004782D01*
X003145Y004663D02*
X001010Y004663D01*
X001010Y003715D02*
X001020Y003715D01*
X001010Y003597D02*
X001100Y003597D01*
X001980Y003715D02*
X003145Y003715D01*
X003145Y003597D02*
X002100Y003597D01*
X002261Y003478D02*
X002394Y003478D01*
X002339Y003360D02*
X002337Y003360D01*
X002677Y003360D02*
X002754Y003360D01*
X002754Y003478D02*
X002677Y003478D01*
X002677Y003241D02*
X002754Y003241D01*
X002715Y003160D02*
X002715Y007725D01*
X002280Y008160D01*
X001500Y008160D01*
X001540Y008200D02*
X001540Y008620D01*
X001836Y008620D01*
X001908Y008609D01*
X001977Y008586D01*
X002041Y008553D01*
X002100Y008511D01*
X002151Y008460D01*
X002193Y008401D01*
X002226Y008337D01*
X002249Y008268D01*
X002259Y008200D01*
X001540Y008200D01*
X001540Y008218D02*
X001460Y008218D01*
X001460Y008100D02*
X001540Y008100D01*
X001540Y008120D02*
X001540Y007700D01*
X001836Y007700D01*
X001908Y007711D01*
X001977Y007734D01*
X002041Y007767D01*
X002100Y007809D01*
X002151Y007860D01*
X002193Y007919D01*
X002226Y007983D01*
X002249Y008052D01*
X002259Y008120D01*
X001540Y008120D01*
X001540Y007981D02*
X001460Y007981D01*
X001460Y007863D02*
X001540Y007863D01*
X001540Y007744D02*
X001460Y007744D01*
X001170Y007626D02*
X001010Y007626D01*
X001460Y008337D02*
X001540Y008337D01*
X001540Y008455D02*
X001460Y008455D01*
X001460Y008574D02*
X001540Y008574D01*
X001600Y009160D02*
X002380Y009160D01*
X003806Y007734D01*
X003806Y000920D01*
X003796Y000910D01*
X003030Y000910D01*
X002550Y000910D01*
X002162Y001227D02*
X001010Y001227D01*
X001010Y001345D02*
X003566Y001345D01*
X003566Y001227D02*
X002938Y001227D01*
X003566Y001464D02*
X001010Y001464D01*
X001010Y001582D02*
X003566Y001582D01*
X003566Y001701D02*
X001010Y001701D01*
X001010Y001819D02*
X003566Y001819D01*
X003566Y001938D02*
X001010Y001938D01*
X001010Y002056D02*
X003566Y002056D01*
X003566Y002175D02*
X003089Y002175D01*
X003241Y002293D02*
X003566Y002293D01*
X003566Y002412D02*
X003352Y002412D01*
X003471Y002530D02*
X003566Y002530D01*
X004046Y002530D02*
X004070Y002530D01*
X004070Y002635D02*
X004070Y002185D01*
X004175Y002080D01*
X004925Y002080D01*
X005030Y002185D01*
X005030Y002635D01*
X004925Y002740D01*
X004175Y002740D01*
X004070Y002635D01*
X004084Y002649D02*
X004046Y002649D01*
X004046Y002767D02*
X005147Y002767D01*
X005265Y002649D02*
X005016Y002649D01*
X005030Y002530D02*
X005384Y002530D01*
X005502Y002412D02*
X005030Y002412D01*
X005030Y002293D02*
X005621Y002293D01*
X005739Y002175D02*
X005019Y002175D01*
X005205Y002046D02*
X005205Y000912D01*
X005297Y000820D01*
X005030Y000820D01*
X005030Y001135D01*
X004925Y001240D01*
X004175Y001240D01*
X004070Y001135D01*
X004070Y000995D01*
X004046Y001019D01*
X004046Y007782D01*
X004009Y007870D01*
X002719Y009160D01*
X004053Y010494D01*
X004121Y010561D01*
X004157Y010649D01*
X004157Y012260D01*
X004354Y012260D01*
X004354Y012578D01*
X004431Y012578D01*
X004431Y012260D01*
X004667Y012260D01*
X004606Y012199D01*
X004606Y011459D01*
X004712Y011354D01*
X005234Y011354D01*
X004805Y010925D01*
X004738Y010857D01*
X004701Y010769D01*
X004701Y006880D01*
X004619Y006798D01*
X004561Y006659D01*
X004561Y006631D01*
X004502Y006631D01*
X004414Y006595D01*
X004347Y006527D01*
X004310Y006439D01*
X004310Y006391D01*
X004279Y006391D01*
X004173Y006286D01*
X004173Y005704D01*
X004217Y005660D01*
X004173Y005616D01*
X004173Y005034D01*
X004279Y004929D01*
X004310Y004929D01*
X004310Y003655D01*
X004347Y003567D01*
X004414Y003500D01*
X005763Y002151D01*
X005310Y002151D01*
X005205Y002046D01*
X005215Y002056D02*
X004046Y002056D01*
X004046Y001938D02*
X005205Y001938D01*
X005205Y001819D02*
X004046Y001819D01*
X004046Y001701D02*
X005205Y001701D01*
X005205Y001582D02*
X004046Y001582D01*
X004046Y001464D02*
X005205Y001464D01*
X005205Y001345D02*
X004046Y001345D01*
X004046Y001227D02*
X004162Y001227D01*
X004070Y001108D02*
X004046Y001108D01*
X003806Y000920D02*
X004145Y000580D01*
X009740Y000580D01*
X010070Y000910D01*
X010550Y000910D01*
X010925Y001240D02*
X010175Y001240D01*
X010085Y001150D01*
X010022Y001150D01*
X009934Y001113D01*
X009895Y001075D01*
X009895Y002046D01*
X009790Y002151D01*
X008853Y002151D01*
X008748Y002046D01*
X008748Y000912D01*
X008840Y000820D01*
X006260Y000820D01*
X006352Y000912D01*
X006352Y002022D01*
X006907Y002022D01*
X006995Y002059D01*
X007063Y002126D01*
X007439Y002502D01*
X007475Y002590D01*
X007475Y002972D01*
X007856Y002972D01*
X007779Y002787D01*
X007779Y002533D01*
X007876Y002299D01*
X008055Y002120D01*
X008289Y002023D01*
X008543Y002023D01*
X008777Y002120D01*
X008956Y002299D01*
X009053Y002533D01*
X009053Y002787D01*
X008977Y002972D01*
X009790Y002972D01*
X009895Y003078D01*
X009895Y004211D01*
X009790Y004316D01*
X008853Y004316D01*
X008748Y004211D01*
X008748Y003212D01*
X008543Y003297D01*
X008438Y003297D01*
X008438Y003644D01*
X008180Y003644D01*
X008180Y003644D01*
X008180Y004316D01*
X007922Y004574D01*
X008212Y004865D01*
X008550Y004865D01*
X008888Y004865D01*
X009300Y005277D01*
X009712Y004865D01*
X010050Y004865D01*
X010069Y004883D02*
X010367Y004883D01*
X010367Y005043D01*
X010357Y005084D01*
X010336Y005120D01*
X010310Y005146D01*
X010387Y005223D01*
X010387Y005687D01*
X010290Y005785D01*
X010290Y005929D01*
X010321Y005929D01*
X010427Y006034D01*
X010427Y006616D01*
X010383Y006660D01*
X010427Y006704D01*
X010427Y007286D01*
X010321Y007391D01*
X010290Y007391D01*
X010290Y007518D01*
X011919Y009147D01*
X011955Y009235D01*
X011955Y009283D01*
X012006Y009283D01*
X012050Y009327D01*
X012094Y009283D01*
X012676Y009283D01*
X012771Y009378D01*
X012720Y009255D01*
X012720Y009065D01*
X012793Y008888D01*
X012928Y008753D01*
X013105Y008680D01*
X013895Y008680D01*
X013960Y008707D01*
X013960Y008640D01*
X013205Y008640D01*
X013028Y008567D01*
X012893Y008432D01*
X012820Y008255D01*
X012820Y008065D01*
X012893Y007888D01*
X013028Y007753D01*
X013205Y007680D01*
X013960Y007680D01*
X013960Y007613D01*
X013895Y007640D01*
X013105Y007640D01*
X012928Y007567D01*
X012793Y007432D01*
X012720Y007255D01*
X012720Y007065D01*
X012793Y006888D01*
X012928Y006753D01*
X013105Y006680D01*
X013895Y006680D01*
X013960Y006707D01*
X013960Y006640D01*
X013205Y006640D01*
X013028Y006567D01*
X012893Y006432D01*
X012820Y006255D01*
X012820Y006065D01*
X012893Y005888D01*
X013028Y005753D01*
X013205Y005680D01*
X013960Y005680D01*
X013960Y005613D01*
X013895Y005640D01*
X013105Y005640D01*
X012928Y005567D01*
X012793Y005432D01*
X012720Y005255D01*
X012720Y005065D01*
X012793Y004888D01*
X012928Y004753D01*
X013105Y004680D01*
X013895Y004680D01*
X013960Y004707D01*
X013960Y004616D01*
X013936Y004620D01*
X013640Y004620D01*
X013640Y004200D01*
X013560Y004200D01*
X013560Y004620D01*
X013264Y004620D01*
X013192Y004609D01*
X013123Y004586D01*
X013059Y004553D01*
X013000Y004511D01*
X012949Y004460D01*
X012907Y004401D01*
X012874Y004337D01*
X012851Y004268D01*
X012841Y004200D01*
X013560Y004200D01*
X013560Y004120D01*
X013640Y004120D01*
X013640Y003700D01*
X013936Y003700D01*
X013960Y003704D01*
X013960Y003613D01*
X013895Y003640D01*
X013105Y003640D01*
X012928Y003567D01*
X012793Y003432D01*
X012720Y003255D01*
X012720Y003065D01*
X012793Y002888D01*
X012928Y002753D01*
X013105Y002680D01*
X013895Y002680D01*
X013960Y002707D01*
X013960Y000620D01*
X012965Y000620D01*
X013030Y000685D01*
X013030Y001135D01*
X012925Y001240D01*
X012175Y001240D01*
X012070Y001135D01*
X012070Y000685D01*
X012135Y000620D01*
X010965Y000620D01*
X011030Y000685D01*
X011030Y001135D01*
X010925Y001240D01*
X010938Y001227D02*
X012162Y001227D01*
X012070Y001108D02*
X011030Y001108D01*
X011030Y000990D02*
X012070Y000990D01*
X012070Y000871D02*
X011030Y000871D01*
X011030Y000753D02*
X012070Y000753D01*
X012121Y000634D02*
X010979Y000634D01*
X010162Y001227D02*
X009895Y001227D01*
X009895Y001345D02*
X013960Y001345D01*
X013960Y001227D02*
X012938Y001227D01*
X013030Y001108D02*
X013960Y001108D01*
X013960Y000990D02*
X013030Y000990D01*
X013030Y000871D02*
X013960Y000871D01*
X013960Y000753D02*
X013030Y000753D01*
X012979Y000634D02*
X013960Y000634D01*
X013960Y001464D02*
X009895Y001464D01*
X009895Y001582D02*
X013960Y001582D01*
X013960Y001701D02*
X009895Y001701D01*
X009895Y001819D02*
X013960Y001819D01*
X013960Y001938D02*
X009895Y001938D01*
X009885Y002056D02*
X013960Y002056D01*
X013960Y002175D02*
X013019Y002175D01*
X013030Y002185D02*
X013030Y002635D01*
X012925Y002740D01*
X012175Y002740D01*
X012070Y002635D01*
X012070Y002185D01*
X012175Y002080D01*
X012925Y002080D01*
X013030Y002185D01*
X013030Y002293D02*
X013960Y002293D01*
X013960Y002412D02*
X013030Y002412D01*
X013030Y002530D02*
X013960Y002530D01*
X013960Y002649D02*
X013016Y002649D01*
X012914Y002767D02*
X011455Y002767D01*
X011455Y002783D02*
X011506Y002783D01*
X011564Y002841D01*
X011570Y002835D01*
X011606Y002814D01*
X011647Y002803D01*
X011846Y002803D01*
X011846Y003122D01*
X011923Y003122D01*
X011923Y003198D01*
X012261Y003198D01*
X012261Y003378D01*
X012250Y003419D01*
X012229Y003455D01*
X012199Y003485D01*
X012163Y003506D01*
X012122Y003517D01*
X011923Y003517D01*
X011923Y003198D01*
X011846Y003198D01*
X011846Y003517D01*
X011647Y003517D01*
X011606Y003506D01*
X011570Y003485D01*
X011564Y003479D01*
X011506Y003537D01*
X011455Y003537D01*
X011455Y007544D01*
X011538Y007626D01*
X011595Y007766D01*
X011595Y007917D01*
X011538Y008056D01*
X011431Y008163D01*
X011291Y008221D01*
X011140Y008221D01*
X011000Y008163D01*
X010893Y008056D01*
X010835Y007917D01*
X010835Y007766D01*
X010893Y007626D01*
X010975Y007544D01*
X010975Y003537D01*
X010924Y003537D01*
X010819Y003431D01*
X010819Y002889D01*
X010900Y002807D01*
X010833Y002740D01*
X010175Y002740D01*
X010070Y002635D01*
X010070Y002185D01*
X010175Y002080D01*
X010925Y002080D01*
X011015Y002170D01*
X011078Y002170D01*
X011166Y002207D01*
X011234Y002274D01*
X011270Y002362D01*
X011270Y002498D01*
X011419Y002647D01*
X011455Y002735D01*
X011455Y002783D01*
X011419Y002649D02*
X012084Y002649D01*
X012070Y002530D02*
X011302Y002530D01*
X011270Y002412D02*
X012070Y002412D01*
X012070Y002293D02*
X011241Y002293D01*
X011089Y002175D02*
X012081Y002175D01*
X012122Y002803D02*
X011923Y002803D01*
X011923Y003122D01*
X012261Y003122D01*
X012261Y002942D01*
X012250Y002901D01*
X012229Y002865D01*
X012199Y002835D01*
X012163Y002814D01*
X012122Y002803D01*
X012241Y002886D02*
X012796Y002886D01*
X012745Y003004D02*
X012261Y003004D01*
X012261Y003241D02*
X012720Y003241D01*
X012720Y003123D02*
X011923Y003123D01*
X011885Y003160D02*
X011885Y002972D01*
X011885Y002783D01*
X011181Y002080D01*
X010075Y002080D01*
X009236Y002919D01*
X008905Y002919D01*
X008180Y003644D01*
X008438Y003644D01*
X008438Y004157D01*
X008427Y004198D01*
X008406Y004235D01*
X008377Y004264D01*
X008340Y004285D01*
X008299Y004296D01*
X008180Y004296D01*
X008180Y003644D01*
X008180Y003644D01*
X008180Y004296D01*
X008060Y004296D01*
X008058Y004296D01*
X008038Y004316D01*
X007790Y004316D01*
X007790Y004364D01*
X007753Y004452D01*
X007686Y004520D01*
X007598Y004556D01*
X007263Y004556D01*
X007269Y004558D01*
X007306Y004579D01*
X007336Y004609D01*
X007357Y004645D01*
X007367Y004686D01*
X007367Y004846D01*
X007069Y004846D01*
X007069Y004883D01*
X007367Y004883D01*
X007367Y005043D01*
X007357Y005084D01*
X007336Y005120D01*
X007310Y005146D01*
X007387Y005223D01*
X007387Y005687D01*
X007290Y005785D01*
X007290Y005929D01*
X007321Y005929D01*
X007427Y006034D01*
X007427Y006616D01*
X007383Y006660D01*
X007427Y006704D01*
X007427Y007286D01*
X007355Y007357D01*
X007418Y007420D01*
X007454Y007508D01*
X007454Y007551D01*
X007537Y007633D01*
X007594Y007773D01*
X007594Y007924D01*
X007537Y008063D01*
X007430Y008170D01*
X007355Y008201D01*
X007475Y008321D01*
X008175Y008321D01*
X008257Y008239D01*
X008396Y008181D01*
X008548Y008181D01*
X008616Y008209D01*
X008616Y007797D01*
X008414Y007595D01*
X008347Y007527D01*
X008310Y007439D01*
X008310Y007391D01*
X008279Y007391D01*
X008173Y007286D01*
X008173Y006704D01*
X008217Y006660D01*
X008173Y006616D01*
X008173Y006034D01*
X008279Y005929D01*
X008310Y005929D01*
X008310Y005785D01*
X008213Y005687D01*
X008213Y005223D01*
X008290Y005146D01*
X008264Y005120D01*
X008243Y005084D01*
X008233Y005043D01*
X008233Y004883D01*
X008531Y004883D01*
X008531Y004846D01*
X008233Y004846D01*
X008233Y004686D01*
X008243Y004645D01*
X008264Y004609D01*
X008294Y004579D01*
X008331Y004558D01*
X008371Y004547D01*
X008531Y004547D01*
X008531Y004846D01*
X008569Y004846D01*
X008569Y004883D01*
X008867Y004883D01*
X008867Y005043D01*
X008857Y005084D01*
X008836Y005120D01*
X008810Y005146D01*
X008887Y005223D01*
X008887Y005687D01*
X008790Y005785D01*
X008790Y005929D01*
X008821Y005929D01*
X008927Y006034D01*
X008927Y006616D01*
X008883Y006660D01*
X008927Y006704D01*
X008927Y007286D01*
X008855Y007357D01*
X008992Y007494D01*
X008992Y007494D01*
X009060Y007561D01*
X009096Y007650D01*
X009096Y009202D01*
X009178Y009284D01*
X009236Y009424D01*
X009236Y009575D01*
X009178Y009715D01*
X009071Y009822D01*
X008932Y009880D01*
X008781Y009880D01*
X008712Y009851D01*
X008712Y011200D01*
X008730Y011218D01*
X008766Y011306D01*
X008766Y011354D01*
X008798Y011354D01*
X008840Y011396D01*
X008858Y011385D01*
X008899Y011374D01*
X009079Y011374D01*
X009079Y011791D01*
X009155Y011791D01*
X009155Y011374D01*
X009335Y011374D01*
X009376Y011385D01*
X009412Y011406D01*
X009442Y011436D01*
X009463Y011472D01*
X009474Y011513D01*
X009474Y011791D01*
X009155Y011791D01*
X009155Y011868D01*
X009079Y011868D01*
X009079Y012285D01*
X008899Y012285D01*
X008858Y012274D01*
X008840Y012263D01*
X008798Y012305D01*
X008255Y012305D01*
X008231Y012281D01*
X008207Y012305D01*
X007664Y012305D01*
X007641Y012281D01*
X007617Y012305D01*
X007074Y012305D01*
X007050Y012281D01*
X007026Y012305D01*
X006483Y012305D01*
X006459Y012281D01*
X006436Y012305D01*
X005893Y012305D01*
X005869Y012281D01*
X005845Y012305D01*
X005302Y012305D01*
X005278Y012281D01*
X005254Y012305D01*
X004799Y012305D01*
X004816Y012322D01*
X004837Y012358D01*
X004848Y012399D01*
X004848Y012578D01*
X004431Y012578D01*
X004431Y012655D01*
X004848Y012655D01*
X004848Y012835D01*
X004837Y012875D01*
X004826Y012894D01*
X004868Y012936D01*
X004868Y013479D01*
X004844Y013503D01*
X004868Y013526D01*
X004868Y014069D01*
X004844Y014093D01*
X004868Y014117D01*
X004868Y014660D01*
X004844Y014684D01*
X004868Y014707D01*
X004868Y015250D01*
X004844Y015274D01*
X004868Y015298D01*
X004868Y015841D01*
X004844Y015865D01*
X004868Y015889D01*
X004868Y016431D01*
X004844Y016455D01*
X004868Y016479D01*
X004868Y017022D01*
X004844Y017046D01*
X004868Y017070D01*
X004868Y017613D01*
X004844Y017636D01*
X004868Y017660D01*
X004868Y018203D01*
X004844Y018227D01*
X004868Y018251D01*
X004868Y018794D01*
X004844Y018817D01*
X004868Y018841D01*
X004868Y019384D01*
X004844Y019408D01*
X004868Y019432D01*
X004868Y019975D01*
X004762Y020080D01*
X004023Y020080D01*
X003951Y020009D01*
X003764Y020196D01*
X004391Y020196D01*
X004433Y020154D01*
X009667Y020154D01*
X009709Y020196D01*
X011277Y020196D01*
X011277Y020117D01*
X010309Y020117D01*
X010220Y020080D01*
X010153Y020013D01*
X010149Y020009D01*
X010077Y020080D01*
X009338Y020080D01*
X009232Y019975D01*
X009232Y019432D01*
X009256Y019408D01*
X009232Y019384D01*
X009232Y018841D01*
X009256Y018817D01*
X009232Y018794D01*
X009232Y018251D01*
X009256Y018227D01*
X009232Y018203D01*
X009232Y017660D01*
X009256Y017636D01*
X009232Y017613D01*
X009232Y017070D01*
X009256Y017046D01*
X009232Y017022D01*
X009232Y016479D01*
X009256Y016455D01*
X009232Y016431D01*
X009232Y015889D01*
X009256Y015865D01*
X009232Y015841D01*
X009232Y015298D01*
X009256Y015274D01*
X009232Y015250D01*
X009232Y014707D01*
X009256Y014684D01*
X009232Y014660D01*
X009232Y014117D01*
X009256Y014093D01*
X009232Y014069D01*
X009232Y013526D01*
X009256Y013503D01*
X009232Y013479D01*
X009232Y012936D01*
X009274Y012894D01*
X009263Y012875D01*
X009252Y012835D01*
X009252Y012655D01*
X009669Y012655D01*
X009669Y012578D01*
X009746Y012578D01*
X009746Y012260D01*
X009943Y012260D01*
X009943Y010572D01*
X009979Y010483D01*
X010047Y010416D01*
X010747Y009716D01*
X010747Y009600D01*
X010805Y009460D01*
X010912Y009353D01*
X011051Y009295D01*
X011203Y009295D01*
X011342Y009353D01*
X011348Y009359D01*
X011400Y009307D01*
X009847Y007754D01*
X009810Y007665D01*
X009810Y007391D01*
X009779Y007391D01*
X009673Y007286D01*
X009673Y006704D01*
X009717Y006660D01*
X009673Y006616D01*
X009673Y006034D01*
X009779Y005929D01*
X009810Y005929D01*
X009810Y005785D01*
X009713Y005687D01*
X009713Y005223D01*
X009790Y005146D01*
X009764Y005120D01*
X009743Y005084D01*
X009733Y005043D01*
X009733Y004883D01*
X010031Y004883D01*
X010031Y004846D01*
X009733Y004846D01*
X009733Y004686D01*
X009743Y004645D01*
X009764Y004609D01*
X009794Y004579D01*
X009831Y004558D01*
X009871Y004547D01*
X010031Y004547D01*
X010031Y004846D01*
X010069Y004846D01*
X010069Y004883D01*
X010069Y004846D02*
X010367Y004846D01*
X010367Y004686D01*
X010357Y004645D01*
X010336Y004609D01*
X010306Y004579D01*
X010269Y004558D01*
X010229Y004547D01*
X010069Y004547D01*
X010069Y004846D01*
X010069Y004782D02*
X010031Y004782D01*
X010031Y004663D02*
X010069Y004663D01*
X010361Y004663D02*
X010975Y004663D01*
X010975Y004545D02*
X007626Y004545D01*
X007764Y004426D02*
X010975Y004426D01*
X010975Y004308D02*
X009799Y004308D01*
X009895Y004189D02*
X010975Y004189D01*
X010975Y004071D02*
X009895Y004071D01*
X009895Y003952D02*
X010975Y003952D01*
X010975Y003834D02*
X009895Y003834D01*
X009895Y003715D02*
X010975Y003715D01*
X010975Y003597D02*
X009895Y003597D01*
X009895Y003478D02*
X010865Y003478D01*
X010819Y003360D02*
X009895Y003360D01*
X009895Y003241D02*
X010819Y003241D01*
X010819Y003123D02*
X009895Y003123D01*
X009822Y003004D02*
X010819Y003004D01*
X010822Y002886D02*
X009012Y002886D01*
X009053Y002767D02*
X010860Y002767D01*
X011030Y002598D02*
X011215Y002783D01*
X011215Y003160D01*
X011215Y007841D01*
X011132Y008218D02*
X010990Y008218D01*
X010936Y008100D02*
X010871Y008100D01*
X010862Y007981D02*
X010753Y007981D01*
X010835Y007863D02*
X010634Y007863D01*
X010516Y007744D02*
X010844Y007744D01*
X010894Y007626D02*
X010397Y007626D01*
X010290Y007507D02*
X010975Y007507D01*
X010975Y007389D02*
X010324Y007389D01*
X010427Y007270D02*
X010975Y007270D01*
X010975Y007152D02*
X010427Y007152D01*
X010427Y007033D02*
X010975Y007033D01*
X010975Y006915D02*
X010427Y006915D01*
X010427Y006796D02*
X010975Y006796D01*
X010975Y006678D02*
X010401Y006678D01*
X010427Y006559D02*
X010975Y006559D01*
X010975Y006441D02*
X010427Y006441D01*
X010427Y006322D02*
X010975Y006322D01*
X010975Y006204D02*
X010427Y006204D01*
X010427Y006085D02*
X010975Y006085D01*
X010975Y005967D02*
X010359Y005967D01*
X010290Y005848D02*
X010975Y005848D01*
X010975Y005730D02*
X010345Y005730D01*
X010387Y005611D02*
X010975Y005611D01*
X010975Y005493D02*
X010387Y005493D01*
X010387Y005374D02*
X010975Y005374D01*
X010975Y005256D02*
X010387Y005256D01*
X010319Y005137D02*
X010975Y005137D01*
X010975Y005019D02*
X010367Y005019D01*
X010367Y004900D02*
X010975Y004900D01*
X010975Y004782D02*
X010367Y004782D01*
X010050Y005455D02*
X010050Y006325D01*
X009741Y005967D02*
X008859Y005967D01*
X008927Y006085D02*
X009673Y006085D01*
X009673Y006204D02*
X008927Y006204D01*
X008927Y006322D02*
X009673Y006322D01*
X009673Y006441D02*
X008927Y006441D01*
X008927Y006559D02*
X009673Y006559D01*
X009699Y006678D02*
X008901Y006678D01*
X008927Y006796D02*
X009673Y006796D01*
X009673Y006915D02*
X008927Y006915D01*
X008927Y007033D02*
X009673Y007033D01*
X009673Y007152D02*
X008927Y007152D01*
X008927Y007270D02*
X009673Y007270D01*
X009776Y007389D02*
X008887Y007389D01*
X009005Y007507D02*
X009810Y007507D01*
X009810Y007626D02*
X009086Y007626D01*
X009096Y007744D02*
X009843Y007744D01*
X009955Y007863D02*
X009096Y007863D01*
X009096Y007981D02*
X010074Y007981D01*
X010192Y008100D02*
X009096Y008100D01*
X009096Y008218D02*
X010311Y008218D01*
X010429Y008337D02*
X009096Y008337D01*
X009096Y008455D02*
X010548Y008455D01*
X010666Y008574D02*
X009096Y008574D01*
X009096Y008692D02*
X010785Y008692D01*
X010903Y008811D02*
X009096Y008811D01*
X009096Y008929D02*
X011022Y008929D01*
X011140Y009048D02*
X009096Y009048D01*
X009096Y009166D02*
X011259Y009166D01*
X011377Y009285D02*
X009178Y009285D01*
X009227Y009403D02*
X010862Y009403D01*
X010779Y009522D02*
X009236Y009522D01*
X009209Y009640D02*
X010747Y009640D01*
X010704Y009759D02*
X009135Y009759D01*
X008938Y009877D02*
X010586Y009877D01*
X010467Y009996D02*
X008712Y009996D01*
X008712Y010114D02*
X010349Y010114D01*
X010230Y010233D02*
X008712Y010233D01*
X008712Y010351D02*
X010112Y010351D01*
X009993Y010470D02*
X008712Y010470D01*
X008712Y010588D02*
X009943Y010588D01*
X009943Y010707D02*
X008712Y010707D01*
X008712Y010825D02*
X009943Y010825D01*
X009943Y010944D02*
X008712Y010944D01*
X008712Y011062D02*
X009943Y011062D01*
X009943Y011181D02*
X008712Y011181D01*
X008763Y011299D02*
X009943Y011299D01*
X009943Y011418D02*
X009424Y011418D01*
X009474Y011536D02*
X009943Y011536D01*
X009943Y011655D02*
X009474Y011655D01*
X009474Y011773D02*
X009943Y011773D01*
X009943Y011892D02*
X009474Y011892D01*
X009474Y011868D02*
X009474Y012146D01*
X009463Y012186D01*
X009442Y012223D01*
X009412Y012253D01*
X009399Y012260D01*
X009669Y012260D01*
X009669Y012578D01*
X009252Y012578D01*
X009252Y012399D01*
X009263Y012358D01*
X009284Y012322D01*
X009314Y012292D01*
X009327Y012285D01*
X009155Y012285D01*
X009155Y011868D01*
X009474Y011868D01*
X009474Y012010D02*
X009943Y012010D01*
X009943Y012129D02*
X009474Y012129D01*
X009418Y012247D02*
X009943Y012247D01*
X009746Y012366D02*
X009669Y012366D01*
X009669Y012484D02*
X009746Y012484D01*
X009707Y012617D02*
X009232Y012617D01*
X009117Y012501D01*
X004983Y012501D01*
X004868Y012617D01*
X004559Y012617D01*
X004393Y012617D01*
X004431Y012603D02*
X009669Y012603D01*
X009252Y012721D02*
X004848Y012721D01*
X004846Y012840D02*
X009254Y012840D01*
X009232Y012958D02*
X004868Y012958D01*
X004868Y013077D02*
X009232Y013077D01*
X009232Y013195D02*
X004868Y013195D01*
X004868Y013314D02*
X009232Y013314D01*
X009232Y013432D02*
X004868Y013432D01*
X004868Y013551D02*
X009232Y013551D01*
X009232Y013669D02*
X004868Y013669D01*
X004868Y013788D02*
X009232Y013788D01*
X009232Y013906D02*
X004868Y013906D01*
X004868Y014025D02*
X009232Y014025D01*
X009232Y014143D02*
X004868Y014143D01*
X004868Y014262D02*
X009232Y014262D01*
X009232Y014380D02*
X004868Y014380D01*
X004868Y014499D02*
X009232Y014499D01*
X009232Y014617D02*
X004868Y014617D01*
X004868Y014736D02*
X009232Y014736D01*
X009232Y014854D02*
X004868Y014854D01*
X004868Y014973D02*
X009232Y014973D01*
X009232Y015091D02*
X004868Y015091D01*
X004868Y015210D02*
X009232Y015210D01*
X009232Y015328D02*
X004868Y015328D01*
X004868Y015447D02*
X009232Y015447D01*
X009232Y015565D02*
X004868Y015565D01*
X004868Y015684D02*
X009232Y015684D01*
X009232Y015802D02*
X004868Y015802D01*
X004868Y015921D02*
X009232Y015921D01*
X009232Y016039D02*
X004868Y016039D01*
X004868Y016158D02*
X009232Y016158D01*
X009232Y016276D02*
X004868Y016276D01*
X004868Y016395D02*
X009232Y016395D01*
X009232Y016513D02*
X004868Y016513D01*
X004868Y016632D02*
X009232Y016632D01*
X009232Y016750D02*
X004868Y016750D01*
X004868Y016869D02*
X009232Y016869D01*
X009232Y016987D02*
X004868Y016987D01*
X004868Y017106D02*
X009232Y017106D01*
X009232Y017224D02*
X004868Y017224D01*
X004868Y017343D02*
X009232Y017343D01*
X009232Y017461D02*
X004868Y017461D01*
X004868Y017580D02*
X009232Y017580D01*
X009232Y017698D02*
X004868Y017698D01*
X004868Y017817D02*
X009232Y017817D01*
X009232Y017935D02*
X004868Y017935D01*
X004868Y018054D02*
X009232Y018054D01*
X009232Y018172D02*
X004868Y018172D01*
X004868Y018291D02*
X009232Y018291D01*
X009232Y018409D02*
X004868Y018409D01*
X004868Y018528D02*
X009232Y018528D01*
X009232Y018646D02*
X004868Y018646D01*
X004868Y018765D02*
X009232Y018765D01*
X009232Y018883D02*
X004868Y018883D01*
X004868Y019002D02*
X009232Y019002D01*
X009232Y019120D02*
X004868Y019120D01*
X004868Y019239D02*
X009232Y019239D01*
X009232Y019357D02*
X004868Y019357D01*
X004868Y019476D02*
X009232Y019476D01*
X009232Y019594D02*
X004868Y019594D01*
X004868Y019713D02*
X009232Y019713D01*
X009232Y019831D02*
X004868Y019831D01*
X004868Y019950D02*
X009232Y019950D01*
X009326Y020068D02*
X004774Y020068D01*
X004400Y020187D02*
X003773Y020187D01*
X003892Y020068D02*
X004011Y020068D01*
X003917Y019703D02*
X003461Y020160D01*
X001600Y020160D01*
X001500Y019160D02*
X003870Y019160D01*
X003917Y019113D01*
X004393Y019113D01*
X004393Y018522D02*
X002742Y018522D01*
X002380Y018160D01*
X001600Y018160D01*
X001500Y017160D02*
X002280Y017160D01*
X003052Y017932D01*
X004393Y017932D01*
X004393Y017341D02*
X003561Y017341D01*
X002380Y016160D01*
X001600Y016160D01*
X001500Y015160D02*
X002280Y015160D01*
X003871Y016751D01*
X004393Y016751D01*
X004393Y016160D02*
X003917Y016160D01*
X002380Y014623D01*
X002380Y014160D01*
X001600Y014160D01*
X002280Y013709D02*
X002280Y013160D01*
X001500Y013160D01*
X002280Y013709D02*
X003917Y015346D01*
X003917Y015569D01*
X004393Y015569D01*
X004393Y014979D02*
X003917Y014979D01*
X002527Y013589D01*
X002527Y012307D01*
X002380Y012160D01*
X001600Y012160D01*
X001600Y011160D02*
X002380Y011160D01*
X002945Y011724D01*
X002945Y013416D01*
X003917Y014388D01*
X004393Y014388D01*
X004393Y013798D02*
X003917Y013798D01*
X003453Y013333D01*
X003453Y011333D01*
X002280Y010160D01*
X001500Y010160D01*
X002380Y009160D02*
X003917Y010697D01*
X003917Y013207D01*
X004393Y013207D01*
X004559Y012617D02*
X004559Y010439D01*
X004701Y010470D02*
X004029Y010470D01*
X004132Y010588D02*
X004701Y010588D01*
X004701Y010707D02*
X004157Y010707D01*
X004157Y010825D02*
X004724Y010825D01*
X004824Y010944D02*
X004157Y010944D01*
X004157Y011062D02*
X004942Y011062D01*
X005061Y011181D02*
X004157Y011181D01*
X004157Y011299D02*
X005179Y011299D01*
X005574Y011354D02*
X005574Y011829D01*
X005574Y011354D02*
X004941Y010721D01*
X004941Y006583D01*
X004749Y006391D01*
X004550Y006391D01*
X004550Y005995D01*
X004311Y006441D02*
X004046Y006441D01*
X004046Y006559D02*
X004378Y006559D01*
X004209Y006322D02*
X004046Y006322D01*
X004046Y006204D02*
X004173Y006204D01*
X004173Y006085D02*
X004046Y006085D01*
X004046Y005967D02*
X004173Y005967D01*
X004173Y005848D02*
X004046Y005848D01*
X004046Y005730D02*
X004173Y005730D01*
X004173Y005611D02*
X004046Y005611D01*
X004046Y005493D02*
X004173Y005493D01*
X004173Y005374D02*
X004046Y005374D01*
X004046Y005256D02*
X004173Y005256D01*
X004173Y005137D02*
X004046Y005137D01*
X004046Y005019D02*
X004189Y005019D01*
X004310Y004900D02*
X004046Y004900D01*
X004046Y004782D02*
X004310Y004782D01*
X004310Y004663D02*
X004046Y004663D01*
X004046Y004545D02*
X004310Y004545D01*
X004310Y004426D02*
X004046Y004426D01*
X004046Y004308D02*
X004310Y004308D01*
X004310Y004189D02*
X004046Y004189D01*
X004046Y004071D02*
X004310Y004071D01*
X004310Y003952D02*
X004046Y003952D01*
X004046Y003834D02*
X004310Y003834D01*
X004310Y003715D02*
X004046Y003715D01*
X004046Y003597D02*
X004334Y003597D01*
X004436Y003478D02*
X004046Y003478D01*
X004046Y003360D02*
X004554Y003360D01*
X004673Y003241D02*
X004046Y003241D01*
X004046Y003123D02*
X004791Y003123D01*
X004910Y003004D02*
X004046Y003004D01*
X004046Y002886D02*
X005028Y002886D01*
X004550Y003703D02*
X004550Y005325D01*
X004569Y006678D02*
X004046Y006678D01*
X004046Y006796D02*
X004618Y006796D01*
X004701Y006915D02*
X004046Y006915D01*
X004046Y007033D02*
X004701Y007033D01*
X004701Y007152D02*
X004046Y007152D01*
X004046Y007270D02*
X004701Y007270D01*
X004701Y007389D02*
X004046Y007389D01*
X004046Y007507D02*
X004701Y007507D01*
X004701Y007626D02*
X004046Y007626D01*
X004046Y007744D02*
X004701Y007744D01*
X004701Y007863D02*
X004012Y007863D01*
X003898Y007981D02*
X004701Y007981D01*
X004701Y008100D02*
X003780Y008100D01*
X003661Y008218D02*
X004701Y008218D01*
X004701Y008337D02*
X003543Y008337D01*
X003424Y008455D02*
X004701Y008455D01*
X004701Y008574D02*
X003306Y008574D01*
X003187Y008692D02*
X004701Y008692D01*
X004701Y008811D02*
X003069Y008811D01*
X002950Y008929D02*
X004701Y008929D01*
X004701Y009048D02*
X002832Y009048D01*
X002725Y009166D02*
X004701Y009166D01*
X004701Y009285D02*
X002844Y009285D01*
X002962Y009403D02*
X004701Y009403D01*
X004701Y009522D02*
X003081Y009522D01*
X003199Y009640D02*
X004701Y009640D01*
X004701Y009759D02*
X003318Y009759D01*
X003436Y009877D02*
X004701Y009877D01*
X004701Y009996D02*
X003555Y009996D01*
X003673Y010114D02*
X004701Y010114D01*
X004701Y010233D02*
X003792Y010233D01*
X003910Y010351D02*
X004701Y010351D01*
X004648Y011418D02*
X004157Y011418D01*
X004157Y011536D02*
X004606Y011536D01*
X004606Y011655D02*
X004157Y011655D01*
X004157Y011773D02*
X004606Y011773D01*
X004606Y011892D02*
X004157Y011892D01*
X004157Y012010D02*
X004606Y012010D01*
X004606Y012129D02*
X004157Y012129D01*
X004157Y012247D02*
X004654Y012247D01*
X004839Y012366D02*
X009261Y012366D01*
X009252Y012484D02*
X004848Y012484D01*
X004431Y012484D02*
X004354Y012484D01*
X004354Y012366D02*
X004431Y012366D01*
X006164Y011829D02*
X006164Y010737D01*
X006766Y010596D02*
X006766Y011343D01*
X006755Y011354D01*
X006755Y011829D01*
X007288Y011297D02*
X007345Y011354D01*
X007345Y011829D01*
X007288Y011297D02*
X007288Y009831D01*
X007936Y009941D02*
X007936Y011829D01*
X008472Y011300D02*
X008526Y011354D01*
X008526Y011829D01*
X008472Y011300D02*
X008472Y008561D01*
X007376Y008561D01*
X005550Y006735D01*
X005550Y005995D01*
X005927Y005967D02*
X006741Y005967D01*
X006779Y005929D02*
X006810Y005929D01*
X006810Y005785D01*
X006713Y005687D01*
X006713Y005223D01*
X006790Y005146D01*
X006764Y005120D01*
X006743Y005084D01*
X006733Y005043D01*
X006733Y004883D01*
X007031Y004883D01*
X007031Y004846D01*
X006746Y004846D01*
X006063Y005529D01*
X005975Y005565D01*
X005927Y005565D01*
X005927Y005616D01*
X005883Y005660D01*
X005927Y005704D01*
X005927Y006286D01*
X005821Y006391D01*
X005790Y006391D01*
X005790Y006636D01*
X006862Y007707D01*
X006892Y007633D01*
X006922Y007603D01*
X006914Y007595D01*
X006847Y007527D01*
X006810Y007439D01*
X006810Y007391D01*
X006779Y007391D01*
X006673Y007286D01*
X006673Y006704D01*
X006717Y006660D01*
X006673Y006616D01*
X006673Y006034D01*
X006779Y005929D01*
X006810Y005848D02*
X005927Y005848D01*
X005927Y005730D02*
X006755Y005730D01*
X006713Y005611D02*
X005927Y005611D01*
X005927Y005325D02*
X006936Y004316D01*
X007550Y004316D01*
X007550Y003644D01*
X007235Y003644D02*
X007235Y002638D01*
X006860Y002262D01*
X005991Y002262D01*
X004550Y003703D01*
X004070Y002412D02*
X004046Y002412D01*
X004046Y002293D02*
X004070Y002293D01*
X004081Y002175D02*
X004046Y002175D01*
X004938Y001227D02*
X005205Y001227D01*
X005205Y001108D02*
X005030Y001108D01*
X005030Y000990D02*
X005205Y000990D01*
X005246Y000871D02*
X005030Y000871D01*
X006311Y000871D02*
X008789Y000871D01*
X008748Y000990D02*
X006352Y000990D01*
X006352Y001108D02*
X008748Y001108D01*
X008748Y001227D02*
X006352Y001227D01*
X006352Y001345D02*
X008748Y001345D01*
X008748Y001464D02*
X006352Y001464D01*
X006352Y001582D02*
X008748Y001582D01*
X008748Y001701D02*
X006352Y001701D01*
X006352Y001819D02*
X008748Y001819D01*
X008748Y001938D02*
X006352Y001938D01*
X006989Y002056D02*
X008209Y002056D01*
X008001Y002175D02*
X007111Y002175D01*
X007230Y002293D02*
X007882Y002293D01*
X007829Y002412D02*
X007348Y002412D01*
X007450Y002530D02*
X007780Y002530D01*
X007779Y002649D02*
X007475Y002649D01*
X007475Y002767D02*
X007779Y002767D01*
X007820Y002886D02*
X007475Y002886D01*
X006920Y003644D02*
X006228Y004337D01*
X006228Y004458D01*
X006692Y004900D02*
X006733Y004900D01*
X006733Y005019D02*
X006573Y005019D01*
X006455Y005137D02*
X006781Y005137D01*
X006713Y005256D02*
X006336Y005256D01*
X006218Y005374D02*
X006713Y005374D01*
X006713Y005493D02*
X006099Y005493D01*
X005927Y005325D02*
X005550Y005325D01*
X005927Y006085D02*
X006673Y006085D01*
X006673Y006204D02*
X005927Y006204D01*
X005891Y006322D02*
X006673Y006322D01*
X006673Y006441D02*
X005790Y006441D01*
X005790Y006559D02*
X006673Y006559D01*
X006699Y006678D02*
X005832Y006678D01*
X005950Y006796D02*
X006673Y006796D01*
X006673Y006915D02*
X006069Y006915D01*
X006187Y007033D02*
X006673Y007033D01*
X006673Y007152D02*
X006306Y007152D01*
X006424Y007270D02*
X006673Y007270D01*
X006776Y007389D02*
X006543Y007389D01*
X006661Y007507D02*
X006838Y007507D01*
X006914Y007595D02*
X006914Y007595D01*
X006900Y007626D02*
X006780Y007626D01*
X007050Y007391D02*
X007050Y006995D01*
X007427Y007033D02*
X008173Y007033D01*
X008173Y006915D02*
X007427Y006915D01*
X007427Y006796D02*
X008173Y006796D01*
X008199Y006678D02*
X007401Y006678D01*
X007427Y006559D02*
X008173Y006559D01*
X008173Y006441D02*
X007427Y006441D01*
X007427Y006322D02*
X008173Y006322D01*
X008173Y006204D02*
X007427Y006204D01*
X007427Y006085D02*
X008173Y006085D01*
X008241Y005967D02*
X007359Y005967D01*
X007290Y005848D02*
X008310Y005848D01*
X008255Y005730D02*
X007345Y005730D01*
X007387Y005611D02*
X008213Y005611D01*
X008213Y005493D02*
X007387Y005493D01*
X007387Y005374D02*
X008213Y005374D01*
X008213Y005256D02*
X007387Y005256D01*
X007319Y005137D02*
X008281Y005137D01*
X008233Y005019D02*
X007367Y005019D01*
X007367Y004900D02*
X008233Y004900D01*
X008233Y004782D02*
X007367Y004782D01*
X007361Y004663D02*
X008239Y004663D01*
X008531Y004663D02*
X008569Y004663D01*
X008569Y004547D02*
X008729Y004547D01*
X008769Y004558D01*
X008806Y004579D01*
X008836Y004609D01*
X008857Y004645D01*
X008867Y004686D01*
X008867Y004846D01*
X008569Y004846D01*
X008569Y004547D01*
X008569Y004782D02*
X008531Y004782D01*
X008867Y004782D02*
X009733Y004782D01*
X009733Y004900D02*
X008867Y004900D01*
X008867Y005019D02*
X009733Y005019D01*
X009781Y005137D02*
X008819Y005137D01*
X008887Y005256D02*
X009713Y005256D01*
X009713Y005374D02*
X008887Y005374D01*
X008887Y005493D02*
X009713Y005493D01*
X009713Y005611D02*
X008887Y005611D01*
X008845Y005730D02*
X009755Y005730D01*
X009810Y005848D02*
X008790Y005848D01*
X008550Y005455D02*
X008550Y006325D01*
X008550Y006995D02*
X008550Y007391D01*
X008856Y007697D01*
X008856Y009500D01*
X008774Y009877D02*
X008712Y009877D01*
X009300Y011171D02*
X009300Y005277D01*
X008861Y004663D02*
X009739Y004663D01*
X008845Y004308D02*
X008047Y004308D01*
X008180Y004189D02*
X008180Y004189D01*
X008180Y004071D02*
X008180Y004071D01*
X008180Y003952D02*
X008180Y003952D01*
X008180Y003834D02*
X008180Y003834D01*
X008180Y003715D02*
X008180Y003715D01*
X008438Y003715D02*
X008748Y003715D01*
X008748Y003597D02*
X008438Y003597D01*
X008438Y003478D02*
X008748Y003478D01*
X008748Y003360D02*
X008438Y003360D01*
X008678Y003241D02*
X008748Y003241D01*
X008748Y003834D02*
X008438Y003834D01*
X008438Y003952D02*
X008748Y003952D01*
X008748Y004071D02*
X008438Y004071D01*
X008430Y004189D02*
X008748Y004189D01*
X007922Y004574D02*
X007632Y004865D01*
X007050Y004865D01*
X007050Y005455D02*
X007050Y006325D01*
X007427Y007152D02*
X008173Y007152D01*
X008173Y007270D02*
X007427Y007270D01*
X007387Y007389D02*
X008276Y007389D01*
X008338Y007507D02*
X007454Y007507D01*
X007529Y007626D02*
X008445Y007626D01*
X008414Y007595D02*
X008414Y007595D01*
X008563Y007744D02*
X007583Y007744D01*
X007594Y007863D02*
X008616Y007863D01*
X008616Y007981D02*
X007571Y007981D01*
X007501Y008100D02*
X008616Y008100D01*
X008306Y008218D02*
X007372Y008218D01*
X007214Y007848D02*
X007214Y007556D01*
X007050Y007391D01*
X009300Y011171D02*
X009117Y011354D01*
X009117Y011829D01*
X009117Y012501D01*
X009079Y012247D02*
X009155Y012247D01*
X009155Y012129D02*
X009079Y012129D01*
X009079Y012010D02*
X009155Y012010D01*
X009155Y011892D02*
X009079Y011892D01*
X009079Y011773D02*
X009155Y011773D01*
X009155Y011655D02*
X009079Y011655D01*
X009079Y011536D02*
X009155Y011536D01*
X009155Y011418D02*
X009079Y011418D01*
X010183Y010619D02*
X010183Y013207D01*
X009707Y013207D01*
X009707Y013798D02*
X010183Y013798D01*
X010423Y013558D01*
X010423Y011329D01*
X011715Y010037D01*
X011715Y009660D01*
X011715Y009283D01*
X010050Y007618D01*
X010050Y006995D01*
X011108Y008337D02*
X012854Y008337D01*
X012820Y008218D02*
X011298Y008218D01*
X011494Y008100D02*
X012820Y008100D01*
X012855Y007981D02*
X011569Y007981D01*
X011595Y007863D02*
X012919Y007863D01*
X013050Y007744D02*
X011586Y007744D01*
X011537Y007626D02*
X013070Y007626D01*
X012868Y007507D02*
X011455Y007507D01*
X011455Y007389D02*
X012775Y007389D01*
X012726Y007270D02*
X011455Y007270D01*
X011455Y007152D02*
X012720Y007152D01*
X012733Y007033D02*
X011455Y007033D01*
X011455Y006915D02*
X012782Y006915D01*
X012885Y006796D02*
X011455Y006796D01*
X011455Y006678D02*
X013960Y006678D01*
X013930Y007626D02*
X013960Y007626D01*
X013924Y008692D02*
X013960Y008692D01*
X013076Y008692D02*
X011464Y008692D01*
X011582Y008811D02*
X012871Y008811D01*
X012776Y008929D02*
X011701Y008929D01*
X011819Y009048D02*
X012727Y009048D01*
X012720Y009166D02*
X011927Y009166D01*
X012008Y009285D02*
X012092Y009285D01*
X012385Y009660D02*
X012385Y010037D01*
X012697Y010037D01*
X012820Y010160D01*
X013600Y010160D01*
X013500Y011160D02*
X011967Y011160D01*
X010700Y012427D01*
X010700Y013871D01*
X010183Y014388D01*
X009707Y014388D01*
X009707Y014979D02*
X010183Y014979D01*
X011100Y014062D01*
X011100Y012691D01*
X011100Y012379D01*
X011319Y012160D01*
X011715Y012160D01*
X012385Y012160D02*
X013500Y012160D01*
X013600Y013160D02*
X012820Y013160D01*
X010411Y015569D01*
X009707Y015569D01*
X009707Y016160D02*
X010286Y016160D01*
X012286Y014160D01*
X013500Y014160D01*
X013600Y015160D02*
X011773Y015160D01*
X010183Y016751D01*
X009707Y016751D01*
X009707Y017341D02*
X010183Y017341D01*
X010183Y017127D01*
X011194Y016116D01*
X012676Y016116D01*
X012720Y016160D01*
X013500Y016160D01*
X013600Y017160D02*
X012385Y017160D01*
X011715Y017160D02*
X011591Y017160D01*
X011319Y017160D01*
X010547Y017932D01*
X009707Y017932D01*
X009707Y018522D02*
X010688Y018522D01*
X011161Y018050D01*
X011271Y018160D01*
X011319Y018160D01*
X011715Y018160D01*
X012385Y018160D02*
X013500Y018160D01*
X013600Y019160D02*
X012820Y019160D01*
X012773Y019113D01*
X010183Y019113D01*
X009707Y019113D01*
X009707Y019703D02*
X010183Y019703D01*
X010356Y019877D01*
X011517Y019877D01*
X011517Y020160D01*
X011715Y020160D01*
X011517Y019877D02*
X011517Y019853D01*
X011731Y019639D01*
X011277Y020187D02*
X009700Y020187D01*
X010089Y020068D02*
X010208Y020068D01*
X010153Y020013D02*
X010153Y020013D01*
X011591Y017160D02*
X011591Y016737D01*
X011351Y016496D01*
X012385Y020160D02*
X013500Y020160D01*
X010183Y010619D02*
X011127Y009675D01*
X011345Y008574D02*
X013044Y008574D01*
X012916Y008455D02*
X011227Y008455D01*
X011455Y006559D02*
X013020Y006559D01*
X012902Y006441D02*
X011455Y006441D01*
X011455Y006322D02*
X012848Y006322D01*
X012820Y006204D02*
X011455Y006204D01*
X011455Y006085D02*
X012820Y006085D01*
X012861Y005967D02*
X011455Y005967D01*
X011455Y005848D02*
X012933Y005848D01*
X013085Y005730D02*
X011455Y005730D01*
X011455Y005611D02*
X013035Y005611D01*
X012854Y005493D02*
X011455Y005493D01*
X011455Y005374D02*
X012769Y005374D01*
X012720Y005256D02*
X011455Y005256D01*
X011455Y005137D02*
X012720Y005137D01*
X012739Y005019D02*
X011455Y005019D01*
X011455Y004900D02*
X012788Y004900D01*
X012900Y004782D02*
X011455Y004782D01*
X011455Y004663D02*
X013960Y004663D01*
X013640Y004545D02*
X013560Y004545D01*
X013560Y004426D02*
X013640Y004426D01*
X013640Y004308D02*
X013560Y004308D01*
X013560Y004189D02*
X011455Y004189D01*
X011455Y004071D02*
X012848Y004071D01*
X012851Y004052D02*
X012874Y003983D01*
X012907Y003919D01*
X012949Y003860D01*
X013000Y003809D01*
X013059Y003767D01*
X013123Y003734D01*
X013192Y003711D01*
X013264Y003700D01*
X013560Y003700D01*
X013560Y004120D01*
X012841Y004120D01*
X012851Y004052D01*
X012890Y003952D02*
X011455Y003952D01*
X011455Y003834D02*
X012976Y003834D01*
X013181Y003715D02*
X011455Y003715D01*
X011455Y003597D02*
X013000Y003597D01*
X012839Y003478D02*
X012206Y003478D01*
X012197Y003537D02*
X011885Y003537D01*
X011885Y003160D01*
X011846Y003241D02*
X011923Y003241D01*
X011923Y003360D02*
X011846Y003360D01*
X011846Y003478D02*
X011923Y003478D01*
X012197Y003537D02*
X012820Y004160D01*
X013600Y004160D01*
X013560Y004071D02*
X013640Y004071D01*
X013640Y003952D02*
X013560Y003952D01*
X013560Y003834D02*
X013640Y003834D01*
X013640Y003715D02*
X013560Y003715D01*
X013047Y004545D02*
X011455Y004545D01*
X011455Y004426D02*
X012925Y004426D01*
X012864Y004308D02*
X011455Y004308D01*
X012261Y003360D02*
X012763Y003360D01*
X011923Y003004D02*
X011846Y003004D01*
X011846Y002886D02*
X011923Y002886D01*
X011030Y002598D02*
X011030Y002410D01*
X010550Y002410D01*
X010070Y002412D02*
X009003Y002412D01*
X009052Y002530D02*
X010070Y002530D01*
X010084Y002649D02*
X009053Y002649D01*
X008950Y002293D02*
X010070Y002293D01*
X010081Y002175D02*
X008832Y002175D01*
X008758Y002056D02*
X008623Y002056D01*
X009895Y001108D02*
X009929Y001108D01*
X012677Y009285D02*
X012732Y009285D01*
X004393Y019703D02*
X003917Y019703D01*
X002390Y008811D02*
X002229Y008811D01*
X002024Y008692D02*
X002509Y008692D01*
X002627Y008574D02*
X002002Y008574D01*
X002154Y008455D02*
X002746Y008455D01*
X002864Y008337D02*
X002226Y008337D01*
X002257Y008218D02*
X002983Y008218D01*
X003101Y008100D02*
X002256Y008100D01*
X002225Y007981D02*
X003220Y007981D01*
X003338Y007863D02*
X002152Y007863D01*
X001997Y007744D02*
X003457Y007744D01*
X003566Y007626D02*
X002030Y007626D01*
X002232Y007507D02*
X003566Y007507D01*
X003566Y007389D02*
X002325Y007389D01*
X002374Y007270D02*
X003566Y007270D01*
X003566Y007152D02*
X002380Y007152D01*
X002367Y007033D02*
X003566Y007033D01*
X003566Y006915D02*
X002318Y006915D01*
X002215Y006796D02*
X003566Y006796D01*
X003168Y006678D02*
X001010Y006678D01*
X001010Y005611D02*
X001135Y005611D01*
X002080Y006559D02*
X003057Y006559D01*
X003008Y006441D02*
X002198Y006441D01*
X002252Y006322D02*
X003005Y006322D01*
X003037Y006204D02*
X002280Y006204D01*
X002094Y004545D02*
X003145Y004545D01*
X003145Y004426D02*
X002209Y004426D01*
X002258Y004308D02*
X003145Y004308D01*
X003145Y004189D02*
X002280Y004189D01*
X002280Y004071D02*
X003145Y004071D01*
X003145Y003952D02*
X002233Y003952D01*
X002152Y003834D02*
X003145Y003834D01*
X002754Y003004D02*
X002677Y003004D01*
X002677Y002886D02*
X002754Y002886D01*
X003029Y002767D02*
X002186Y002767D01*
X002304Y002886D02*
X002359Y002886D01*
X002070Y001108D02*
X001010Y001108D01*
X001010Y000990D02*
X002070Y000990D01*
X002070Y000871D02*
X001010Y000871D01*
X001010Y000753D02*
X002070Y000753D01*
X002121Y000634D02*
X001010Y000634D01*
X001010Y008692D02*
X001176Y008692D01*
D20*
X003385Y006357D03*
X004941Y006583D03*
X006228Y004458D03*
X007214Y007848D03*
X008472Y008561D03*
X008856Y009500D03*
X007936Y009941D03*
X007288Y009831D03*
X006766Y010596D03*
X006164Y010737D03*
X004559Y010439D03*
X011100Y012691D03*
X011127Y009675D03*
X011215Y007841D03*
X011351Y016496D03*
X011161Y018050D03*
X011731Y019639D03*
M02*
