%
M48
M72
T01C0.0240
T02C0.0354
T03C0.0400
%
T01
X3385Y6357
X4941Y6583
X6228Y4458
X7214Y7848
X8472Y8561
X8856Y9500
X7936Y9941
X7288Y9831
X6766Y10596
X6164Y10737
X4559Y10439
X11100Y12691
X11127Y9675
X11215Y7841
X11351Y16496
X11161Y18050
X11731Y19639
T02
X8416Y2660
X6684Y2660
T03
X1600Y3160
X1500Y4160
X1600Y5160
X1500Y6160
X1600Y7160
X1500Y8160
X1600Y9160
X1500Y10160
X1600Y11160
X1600Y12160
X1500Y13160
X1600Y14160
X1500Y15160
X1600Y16160
X1500Y17160
X1600Y18160
X1500Y19160
X1600Y20160
X13500Y20160
X13600Y19160
X13500Y18160
X13600Y17160
X13500Y16160
X13600Y15160
X13500Y14160
X13600Y13160
X13500Y12160
X13500Y11160
X13600Y10160
X13500Y9160
X13600Y8160
X13500Y7160
X13600Y6160
X13500Y5160
X13600Y4160
X13500Y3160
M30
