G75*
G70*
%OFA0B0*%
%FSLAX24Y24*%
%IPPOS*%
%LPD*%
%AMOC8*
5,1,8,0,0,1.08239X$1,22.5*
%
%ADD10C,0.0600*%
%ADD11C,0.0120*%
%ADD12C,0.0400*%
D10*
X001300Y003160D02*
X001900Y003160D01*
X001800Y004160D02*
X001200Y004160D01*
X001300Y005160D02*
X001900Y005160D01*
X001800Y006160D02*
X001200Y006160D01*
X001300Y007160D02*
X001900Y007160D01*
X001800Y008160D02*
X001200Y008160D01*
X001300Y009160D02*
X001900Y009160D01*
X001800Y010160D02*
X001200Y010160D01*
X001300Y011160D02*
X001900Y011160D01*
X001900Y012160D02*
X001300Y012160D01*
X001200Y013160D02*
X001800Y013160D01*
X001900Y014160D02*
X001300Y014160D01*
X001200Y015160D02*
X001800Y015160D01*
X001900Y016160D02*
X001300Y016160D01*
X001200Y017160D02*
X001800Y017160D01*
X001900Y018160D02*
X001300Y018160D01*
X001200Y019160D02*
X001800Y019160D01*
X001900Y020160D02*
X001300Y020160D01*
X013200Y020160D02*
X013800Y020160D01*
X013900Y019160D02*
X013300Y019160D01*
X013200Y018160D02*
X013800Y018160D01*
X013900Y017160D02*
X013300Y017160D01*
X013200Y016160D02*
X013800Y016160D01*
X013900Y015160D02*
X013300Y015160D01*
X013200Y014160D02*
X013800Y014160D01*
X013900Y013160D02*
X013300Y013160D01*
X013200Y012160D02*
X013800Y012160D01*
X013800Y011160D02*
X013200Y011160D01*
X013300Y010160D02*
X013900Y010160D01*
X013800Y009160D02*
X013200Y009160D01*
X013300Y008160D02*
X013900Y008160D01*
X013800Y007160D02*
X013200Y007160D01*
X013300Y006160D02*
X013900Y006160D01*
X013800Y005160D02*
X013200Y005160D01*
X013300Y004160D02*
X013900Y004160D01*
X013800Y003160D02*
X013200Y003160D01*
D11*
X013500Y003160D02*
X012720Y003160D01*
X011422Y004458D01*
X006228Y004458D01*
X005364Y006160D02*
X004941Y006583D01*
X005364Y006160D02*
X012820Y006160D01*
X013600Y006160D01*
X013500Y007160D02*
X009873Y007160D01*
X008472Y008561D01*
X008486Y009120D02*
X007214Y007848D01*
X007271Y009451D02*
X007446Y009451D01*
X007936Y009941D01*
X008486Y009120D02*
X009038Y009120D01*
X011731Y011813D01*
X011731Y017479D01*
X011161Y018050D01*
X011973Y019398D02*
X011973Y011637D01*
X010728Y010393D01*
X010728Y008328D01*
X011215Y007841D01*
X011127Y009675D02*
X012205Y009675D01*
X012720Y009160D01*
X013500Y009160D01*
X011491Y012134D02*
X008856Y009500D01*
X007271Y009451D02*
X004314Y006494D01*
X004314Y005094D01*
X002380Y003160D01*
X001600Y003160D01*
X001500Y004160D02*
X002280Y004160D01*
X003954Y005834D01*
X003954Y006497D01*
X007288Y009831D01*
X006766Y010276D02*
X006766Y010596D01*
X006766Y010596D01*
X006766Y010276D02*
X002380Y005890D01*
X002380Y005160D01*
X001600Y005160D01*
X001500Y006160D02*
X002280Y006160D01*
X002280Y006853D01*
X006164Y010737D01*
X004559Y010439D02*
X002280Y008160D01*
X001500Y008160D01*
X003385Y006490D02*
X003385Y006357D01*
X003385Y006490D02*
X009586Y012691D01*
X011100Y012691D01*
X011491Y012134D02*
X011491Y016356D01*
X011351Y016496D01*
X011973Y019398D02*
X011731Y019639D01*
D12*
X011731Y019639D03*
X011161Y018050D03*
X011351Y016496D03*
X011100Y012691D03*
X011127Y009675D03*
X011215Y007841D03*
X008856Y009500D03*
X008472Y008561D03*
X007936Y009941D03*
X007288Y009831D03*
X006766Y010596D03*
X006164Y010737D03*
X004559Y010439D03*
X004941Y006583D03*
X006228Y004458D03*
X007214Y007848D03*
X003385Y006357D03*
M02*
